<svg height="512pt" viewBox="-1 0 512 512" width="512pt" xmlns="http://www.w3.org/2000/svg"><path d="m509.714844 240.46875c0-9.464844-8.679688-16.570312-17.953125-14.707031l-149.707031 30.0625c-7.007813 1.40625-12.046876 7.5625-12.046876 14.707031v121.28125h-30.007812c-33.085938 0-60 26.917969-60 60 0 33.796875 27.367188 60.1875 60 60.1875 33.085938 0 60-26.914062 60-60 0 0 .007812.535156.007812-109.054688l119.707032-23.992187v42.796875h-29.714844c-32.6875 0-60 26.449219-60 60.1875 0 33.085938 26.914062 60 60 60s60-26.914062 60-60c0-18.605469-.285156-60.53125-.285156-181.46875zm0 0"/><path d="m270 240.375c0-16.542969-13.457031-30-30-30-16.25 0-30 13.09375-30 30.1875 0 16.542969 13.457031 30 30 30 16.25 0 30-13.09375 30-30.1875zm0 0"/><path d="m300.007812 361.8125v-91.28125c0-21.359375 15.195313-39.917969 36.140626-44.121094l140.171874-28.148437c-20.164062-113.582031-118.886718-198.261719-236.320312-198.261719-132.660156 0-240 107.5625-240 240.46875 0 126.238281 95.972656 226.566406 214.324219 239.101562-18.636719-57.789062 24.414062-117.757812 85.683593-117.757812zm-120.007812-121.4375c0-33.085938 26.914062-60 60-60 32.679688 0 60 26.4375 60 60.1875 0 33.082031-26.914062 60-60 60-32.679688 0-60-26.441406-60-60.1875zm0 0"/></svg>