<?xml version="1.0" standalone="no"?>
<!DOCTYPE svg PUBLIC "-//W3C//DTD SVG 1.1//EN" "http://www.w3.org/Graphics/SVG/1.1/DTD/svg11.dtd" >
<svg>
<metadata>
Created by FontForge 20120731 at Sat Jul 27 14:40:17 2019
 By www
Copyright (c) 2009 by Alec Julien. All rights reserved.
</metadata>
<defs>
<font id="IAmABirdW01-Bold" horiz-adv-x="545" >
  <font-face 
    font-family="IAmABirdW01-Bold"
    font-weight="700"
    font-stretch="normal"
    units-per-em="1000"
    panose-1="2 0 0 0 0 0 0 0 0 0"
    ascent="800"
    descent="-200"
    x-height="500"
    cap-height="700"
    bbox="-25 -256 1073 926"
    underline-thickness="50"
    underline-position="-125"
    unicode-range="U+0020-2122"
  />
<missing-glyph horiz-adv-x="542" 
d="M32 700h478v-700h-478v700zM385 125v450h-228v-450h228z" />
    <glyph glyph-name=".notdef" horiz-adv-x="542" 
d="M32 700h478v-700h-478v700zM385 125v450h-228v-450h228z" />
    <glyph glyph-name="glyph1" horiz-adv-x="0" 
 />
    <glyph glyph-name="glyph2" horiz-adv-x="263" 
 />
    <glyph glyph-name="space" unicode=" " horiz-adv-x="263" 
 />
    <glyph glyph-name="exclam" unicode="!" horiz-adv-x="203" 
d="M40 700h123v-492h-123v492zM30 0v142h143v-142h-143z" />
    <glyph glyph-name="quotedbl" unicode="&#x22;" horiz-adv-x="326" 
d="M24 700h116v-234h-116v234zM186 700h116v-234h-116v234z" />
    <glyph glyph-name="numbersign" unicode="#" horiz-adv-x="529" 
d="M281 199h-85l-34 -199h-114l34 199h-55v103h71l18 103h-56v103h71l33 192h114l-33 -192h85l33 192h114l-33 -192h58v-103h-74l-18 -103h60v-103h-75l-34 -199h-114zM211 302h86l18 103h-86z" />
    <glyph glyph-name="dollar" unicode="$" horiz-adv-x="470" 
d="M187 0h-154v174h123v-54h31v211l-29 16q-26 13 -49.5 27t-41.5 33t-29 45.5t-11 65.5q0 37 12.5 69.5t34 56.5t50.5 38.5t63 16.5v47h89v-46h120v-169h-120v-115q37 -20 68 -39.5t53 -42.5t34 -53t12 -71q0 -35 -9 -68t-29 -60t-51.5 -47t-77.5 -29v-52h-89v46zM317 209
q0 20 -11.5 37.5t-29.5 31.5v-147q21 9 31 32t10 46zM151 516q0 -14 9.5 -26t26.5 -24v111q-17 -8 -26.5 -24t-9.5 -37z" />
    <glyph glyph-name="percent" unicode="%" horiz-adv-x="747" 
d="M490 700h125l-356 -700h-125zM27 539q0 35 13 65.5t35.5 53t52.5 35.5t65 13t65.5 -13t53 -35.5t35.5 -53t13 -65.5t-13 -65t-35.5 -52.5t-53 -35.5t-65.5 -13t-65 13t-52.5 35.5t-35.5 52.5t-13 65zM143 539q0 -22 14 -36t36 -14t37 14t15 36t-15 37t-37 15t-36 -15
t-14 -37zM388 159q0 35 13 65.5t35.5 53t52.5 35.5t65 13q34 0 64.5 -13t53 -35.5t35.5 -53t13 -65.5t-13 -65t-35.5 -52t-53 -35t-64.5 -13q-35 0 -65 13t-52.5 35t-35.5 52t-13 65zM504 159q0 -21 14 -35.5t36 -14.5q21 0 36.5 14.5t15.5 35.5q0 22 -15.5 37t-36.5 15
q-22 0 -36 -15t-14 -37z" />
    <glyph glyph-name="ampersand" unicode="&#x26;" horiz-adv-x="565" 
d="M316 578q-11 11 -21.5 14t-36.5 3q-13 0 -27.5 -5.5t-27 -14.5t-20.5 -21t-8 -25q0 -20 8 -33t21.5 -21t30 -11t34.5 -3q14 0 28 2t26 4v-131q-32 8 -57 8q-50 0 -83 -29t-33 -93q0 -19 7 -38t20.5 -34t33.5 -24.5t46 -9.5q18 0 35.5 5.5t30.5 15.5t21 24t8 32v7h-108
v109h294v-109h-64q1 -5 1 -8v-7q0 -39 -17.5 -74t-47 -61t-69 -41t-84.5 -15q-61 0 -104.5 20t-71.5 52t-41 72t-13 81q0 22 4 48t12 51.5t20 49t28 40.5q-17 21 -28 51.5t-11 57.5q0 34 15.5 68t43 61t66 43.5t84.5 16.5q48 0 95 -21.5t82 -66.5v-115h-122v75z" />
    <glyph glyph-name="quotesingle" unicode="'" horiz-adv-x="163" 
d="M24 700h115v-234h-115v234z" />
    <glyph glyph-name="parenleft" unicode="(" horiz-adv-x="274" 
d="M257 -145q-62 38 -106 93.5t-71.5 119.5t-40 131t-12.5 128q0 62 14.5 131t43.5 134.5t72 122t100 94.5v-132q-32 -30 -53.5 -74t-35 -93t-19.5 -98.5t-6 -89.5q0 -43 5.5 -90t19 -92.5t35 -85.5t54.5 -68v-131z" />
    <glyph glyph-name="parenright" unicode=")" horiz-adv-x="273" 
d="M17 -14q33 28 54.5 68t34.5 85.5t18.5 92.5t5.5 90q0 40 -6 89.5t-19 98.5t-35 93t-53 74v132q57 -38 99.5 -94.5t71.5 -122t43.5 -134.5t14.5 -131q0 -61 -12.5 -128t-40 -131t-71 -119.5t-105.5 -93.5v131z" />
    <glyph glyph-name="asterisk" unicode="*" horiz-adv-x="410" 
d="M137 587l-96 44l79 79l47 -81l-23 101h110l-20 -101l50 85l77 -78l-89 -49l106 24v-110l-106 26l93 -59l-79 -78l-50 94l19 -100h-110l21 102l-49 -92l-78 77l98 55l-105 -25v111z" />
    <glyph glyph-name="plus" unicode="+" horiz-adv-x="470" 
d="M174 193h-142v122h142v148h122v-148h142v-122h-142v-148h-122v148z" />
    <glyph glyph-name="comma" unicode="," horiz-adv-x="208" 
d="M27 0v156h149v-103q0 -85 -38 -133t-111 -57v86q17 5 28.5 17t13.5 34h-42z" />
    <glyph glyph-name="hyphen" unicode="-" horiz-adv-x="376" 
d="M352 357v-122h-328v122h328z" />
    <glyph glyph-name="period" unicode="." horiz-adv-x="193" 
d="M25 0v142h142v-142h-142z" />
    <glyph glyph-name="slash" unicode="/" horiz-adv-x="397" 
d="M263 700h125l-250 -700h-125z" />
    <glyph glyph-name="zero" unicode="0" horiz-adv-x="497" 
d="M249 706q63 0 105.5 -33t68 -84.5t36.5 -114t11 -122.5q0 -57 -8.5 -120t-32.5 -116t-67 -87.5t-113 -34.5q-69 0 -112.5 34t-68 86.5t-33 115.5t-8.5 120q0 61 11 124t36.5 114.5t68.5 84.5t106 33zM249 117q29 0 48 20.5t30 53.5t15.5 75t4.5 84t-4.5 84t-16 75.5
t-30.5 54t-47 20.5q-27 0 -45.5 -21t-30.5 -54.5t-17 -76t-5 -85.5q0 -42 4 -83t15 -74t30 -53t49 -20z" />
    <glyph glyph-name="one" unicode="1" horiz-adv-x="373" 
d="M142 685h113v-563h84v-122h-294v122h88v366l-25 -21l-79 73z" />
    <glyph glyph-name="two" unicode="2" horiz-adv-x="455" 
d="M40 602q10 26 29.5 45.5t43.5 32.5t49 19.5t48 6.5q43 0 78.5 -13.5t61 -42t39.5 -73.5t14 -109q0 -38 -13 -81.5t-37 -89t-57 -91t-73 -87.5h77v59h123v-178h-396v106q47 38 92.5 85.5t81 96.5t57.5 96t22 83q0 19 -1.5 40.5t-8 40t-20.5 30.5t-38 12q-11 0 -25.5 -4
t-24.5 -18v-77h-123v104z" />
    <glyph glyph-name="three" unicode="3" horiz-adv-x="465" 
d="M34 623q35 43 81.5 63t95.5 20q53 0 91 -19t63 -49t36.5 -66.5t11.5 -70.5q0 -28 -11.5 -63t-34.5 -58q19 -12 33 -32t22 -43t12 -47.5t4 -46.5q0 -41 -16 -79.5t-45 -69.5t-70.5 -49.5t-93.5 -18.5q-21 0 -47.5 5t-52.5 14t-49 20.5t-37 24.5v139h123v-71
q15 -9 32.5 -11t31.5 -2q21 0 39 8.5t31.5 23t21.5 32.5t8 37q0 17 -3 34t-13.5 31t-30 22.5t-52.5 8.5q-26 0 -46.5 -2.5t-42.5 -3.5v126q23 -5 50 -5q20 0 40 3.5t36.5 12t27 23t10.5 37.5q0 13 -3 28t-11.5 28t-24 22t-41.5 9q-29 0 -57 -21v-70h-119v126z" />
    <glyph glyph-name="four" unicode="4" horiz-adv-x="496" 
d="M286 700h178v-122h-65v-261h65v-122h-65v-73h65v-122h-187v195h-250v119zM164 317h113v178z" />
    <glyph glyph-name="five" unicode="5" horiz-adv-x="462" 
d="M279 581h-113l-9 -115h58q57 0 98.5 -22t68.5 -56t40 -75t13 -78t-14 -78.5t-41 -76t-67 -57.5t-92 -23h-189v196h121v-74h63q22 0 39.5 12t28.5 29.5t17 37.5t6 36t-6.5 35t-18.5 35.5t-29.5 27.5t-39.5 11h-181l22 354h347v-169h-122v50z" />
    <glyph glyph-name="six" unicode="6" horiz-adv-x="484" 
d="M375 544h-123v39q-15 -3 -32 -13.5t-31.5 -28.5t-24 -44.5t-9.5 -61.5q23 17 49.5 25.5t53.5 8.5q52 0 90 -21t62 -55.5t35.5 -79.5t11.5 -93q0 -47 -14.5 -88t-41.5 -71.5t-67 -48.5t-91 -18q-37 0 -73 15t-64.5 40.5t-47 58.5t-21.5 70q-1 6 -2 13.5t-1.5 24t-1 47
t-0.5 82.5q0 19 0.5 40.5t0.5 46.5q0 75 25.5 127t61.5 84.5t75.5 47.5t68.5 15q25 0 50.5 -4t60.5 -14v-144zM251 351q-40 0 -66 -25t-30 -76v-39q0 -16 7.5 -33t19.5 -31.5t28.5 -24t34.5 -9.5q22 0 39.5 10t28.5 25.5t17 34.5t6 36q0 26 -4.5 50t-14.5 42t-26 29t-40 11z
" />
    <glyph glyph-name="seven" unicode="7" horiz-adv-x="454" 
d="M427 700l-130 -578h60v-122h-211l130 578h-121v-47h-123v169h395z" />
    <glyph glyph-name="eight" unicode="8" horiz-adv-x="506" 
d="M253 706q98 0 151.5 -54t53.5 -151q0 -80 -38 -129q29 -26 44 -69.5t15 -91.5q0 -49 -13.5 -89t-42 -68.5t-71.5 -44t-101 -15.5q-56 0 -97.5 16t-70 45t-42.5 69.5t-14 89.5q0 50 13 92.5t43 68.5q-22 23 -28.5 55t-6.5 74q0 97 51 149t154 53zM350 211q0 15 -4 31.5
t-14.5 30.5t-29.5 23t-49 9t-49 -8t-29.5 -20.5t-14.5 -29t-4 -32.5q0 -99 95 -99q54 0 76.5 23t22.5 72zM335 501q0 15 -4 30.5t-13.5 28.5t-25 21t-39.5 8q-23 0 -39 -7t-25.5 -18.5t-13.5 -27t-4 -31.5q0 -46 21 -63t61 -17q47 0 64.5 16t17.5 60z" />
    <glyph glyph-name="nine" unicode="9" horiz-adv-x="464" 
d="M111 156h122v-39q23 1 38 7t23.5 21t12 40.5t3.5 65.5v52q-20 -11 -43 -15.5t-47 -4.5q-47 0 -83 16.5t-60.5 45.5t-37 70t-12.5 90q0 97 49.5 148.5t155.5 52.5q100 0 150 -53.5t50 -150.5v-251q0 -74 -12 -123.5t-37.5 -79t-65.5 -42t-96 -12.5q-25 0 -51 3.5t-59 11.5
v147zM228 401q38 0 60 12.5t22 56.5v55q0 12 -6 23t-17 19.5t-25.5 14t-31.5 5.5q-45 0 -63.5 -24t-18.5 -57q0 -51 21 -78t59 -27z" />
    <glyph glyph-name="colon" unicode=":" horiz-adv-x="206" 
d="M32 94v141h142v-141h-142zM32 344v142h142v-142h-142z" />
    <glyph glyph-name="semicolon" unicode=";" horiz-adv-x="208" 
d="M31 214v142h142v-142h-142zM27 0v156h149v-103q0 -85 -38 -133t-111 -57v86q17 5 28.5 17t13.5 34h-42z" />
    <glyph glyph-name="less" unicode="&#x3c;" horiz-adv-x="391" 
d="M27 278l191 222h156l-193 -221l192 -223h-155z" />
    <glyph glyph-name="equal" unicode="=" horiz-adv-x="457" 
d="M425 442v-122h-393v122h393zM425 279v-123h-393v123h393z" />
    <glyph glyph-name="greater" unicode="&#x3e;" horiz-adv-x="391" 
d="M173 56h-156l193 221l-192 223h155l191 -222z" />
    <glyph glyph-name="question" unicode="?" horiz-adv-x="416" 
d="M27 516v169h171q53 0 89.5 -18.5t59 -48.5t32.5 -67.5t10 -74.5q0 -38 -9.5 -75t-32 -67t-60 -48.5t-92.5 -18.5v-83h-123v204h127q21 0 34 7.5t20.5 19.5t10 27.5t2.5 31.5t-3.5 31.5t-12 28.5t-22.5 21t-36 8h-44v-47h-121zM64 0v142h142v-142h-142z" />
    <glyph glyph-name="at" unicode="@" horiz-adv-x="749" 
d="M475 550l84 -19q-28 29 -71.5 47.5t-88.5 18.5q-48 0 -93.5 -23.5t-81 -60t-57.5 -82t-22 -89.5q0 -60 19 -109t52 -84t77.5 -54t95.5 -19q17 0 37.5 3t43.5 8l93 -95q-106 -23 -173 -23q-75 0 -141.5 22t-115.5 68t-77.5 117t-28.5 169q0 72 31.5 137.5t83 115t118.5 79
t139 29.5q65 0 123.5 -22t103 -62.5t70.5 -98t26 -127.5v-17.5t-1 -16.5q-5 -53 -25 -101.5t-47.5 -85.5t-60.5 -59t-65 -22q-26 0 -49 11t-41 45q-18 -14 -36 -20.5t-32 -7.5h-15q-43 0 -74.5 15t-52.5 40.5t-31.5 59t-10.5 69.5q0 21 3 43t11 44q11 36 32.5 66t48.5 52
t58 34.5t62 12.5q20 0 39 -3.5t38 -14.5zM612 395q0 26 -5.5 51t-19.5 48l-65 -260l8 -23q13 0 27.5 16t26.5 42t20 59t8 67zM351 236q24 0 41.5 21.5t29 50.5t16.5 60t5 49q0 12 -12.5 20.5t-26.5 8.5q-23 0 -49.5 -26t-40.5 -63q-3 -8 -4.5 -19t-1.5 -22q0 -13 2 -27
t7.5 -26t13.5 -19.5t20 -7.5z" />
    <glyph glyph-name="A" unicode="A" horiz-adv-x="637" 
d="M95 125q11 57 31.5 116t40.5 114q14 39 28.5 81t26 86t19 88.5t7.5 89.5h141q0 -45 7 -90t18.5 -88t26 -85t29.5 -81q21 -57 41 -115.5t31 -115.5h69v-125h-190q0 50 -5.5 96.5t-15.5 86.5h-163q-9 -41 -14.5 -88t-5.5 -95h-191v125h69zM360 307q-10 29 -20.5 62.5
t-21.5 65.5q-10 -32 -19.5 -64t-20.5 -64h82z" />
    <glyph glyph-name="B" unicode="B" horiz-adv-x="558" 
d="M32 125h66v450h-66v125h258q55 0 93 -17t61.5 -45t34 -65t10.5 -76q0 -32 -7.5 -66t-32.5 -60q22 -13 38 -32t25.5 -40.5t14 -44.5t4.5 -45q0 -38 -13.5 -75.5t-40.5 -67t-67 -48t-93 -18.5h-285v125zM223 125h89q23 0 40.5 7.5t29 19.5t17.5 27.5t6 31.5q0 9 -4.5 23.5
t-16 27.5t-30.5 22.5t-47 9.5h-84v-169zM223 577v-158h65q37 0 56.5 21t19.5 59q0 31 -16.5 54.5t-60.5 23.5h-64z" />
    <glyph glyph-name="C" unicode="C" horiz-adv-x="542" 
d="M485 473h-124v68q-5 6 -11.5 12.5t-17 12t-25 9t-35.5 3.5q-34 0 -57.5 -24.5t-38.5 -60t-21.5 -75t-6.5 -70.5q0 -46 9 -87.5t25.5 -73t39.5 -50t51 -18.5q29 0 52 9t42 23.5t34 32.5t29 36l89 -91q-20 -25 -41.5 -49.5t-50 -43.5t-66 -30.5t-88.5 -11.5
q-56 0 -102 27.5t-79 75t-51 112t-18 139.5t18 140t51 113.5t79 76.5t102 28q46 0 81.5 -12t61.5 -30.5t43 -40t26 -40.5v-110z" />
    <glyph glyph-name="D" unicode="D" horiz-adv-x="585" 
d="M288 700q56 0 105 -26.5t86 -73.5t58 -111t21 -138q0 -75 -21.5 -139t-58 -111t-86 -74t-105.5 -27h-255v125h66v448h-66v127h256zM223 573v-448h64q29 0 55.5 18t46.5 49t32 72t12 87t-12 86.5t-32 70.5t-46.5 47.5t-55.5 17.5h-64z" />
    <glyph glyph-name="E" unicode="E" horiz-adv-x="544" 
d="M512 700v-173h-125v48h-164v-140h174v-125h-174v-185h164v53h125v-178h-480v125h67v185h-51v125h51v140h-67v125h480z" />
    <glyph glyph-name="F" unicode="F" horiz-adv-x="511" 
d="M359 575h-136v-171h161v-125h-161v-279h-191v125h66v154h-50v125h50v171h-66v125h452v-173h-125v48z" />
    <glyph glyph-name="G" unicode="G" horiz-adv-x="555" 
d="M510 473h-125v82q-19 20 -40.5 26.5t-40.5 6.5q-36 0 -64.5 -25t-48 -61.5t-29.5 -78t-10 -75.5q0 -46 12 -88t32.5 -73.5t47 -50.5t55.5 -19q41 0 65.5 10t38.5 24v91h-131v125h256v-245q-6 -15 -23.5 -37t-46 -42.5t-68.5 -34.5t-91 -14q-56 0 -105.5 27.5t-86.5 75
t-58.5 112t-21.5 139.5t22.5 140t60.5 113.5t88 76.5t106 28q43 0 77 -13t59.5 -32.5t43 -41.5t26.5 -41v-105z" />
    <glyph glyph-name="H" unicode="H" horiz-adv-x="623" 
d="M591 575h-67v-450h67v-125h-192v300h-175v-300h-192v125h67v450h-67v125h192v-275h175v275h192v-125z" />
    <glyph glyph-name="I" unicode="I" horiz-adv-x="341" 
d="M108 125v450h-76v125h277v-125h-76v-450h76v-125h-277v125h76z" />
    <glyph glyph-name="J" unicode="J" horiz-adv-x="358" 
d="M326 700v-444q0 -76 -12 -126.5t-38.5 -80.5t-67 -42.5t-97.5 -12.5q-26 0 -53.5 4.5t-55.5 12.5l55 116q35 -8 54 -8q27 0 44.5 5t28 19.5t14.5 41.5t4 71v319h-67v125h191z" />
    <glyph glyph-name="K" unicode="K" horiz-adv-x="587" 
d="M223 700v-228q19 27 37.5 53.5t32 54.5t22 58t8.5 62h173v-125h-72q-15 -36 -39 -70.5t-50 -69.5l-19 -25q14 -23 27.5 -43t28.5 -42q42 -61 70.5 -107t45.5 -93h72v-125h-181q0 40 -9 74.5t-24 67t-34.5 63t-40.5 62.5l-29 43l-19 -28v-282h-191v125h66v450h-66v125h191
z" />
    <glyph glyph-name="L" unicode="L" horiz-adv-x="518" 
d="M223 700v-575h143v58h125v-183h-459v125h66v450h-66v125h191z" />
    <glyph glyph-name="M" unicode="M" horiz-adv-x="786" 
d="M325 83q0 46 -7.5 86.5t-21 78t-31 74t-36.5 74.5l-6 14v-410h-191v125h66v450h-66v125h236q0 -47 8 -87.5t20.5 -77.5t28.5 -70.5t33 -66.5q6 -13 10 -20t7 -13t6 -13t9 -20q8 17 16.5 34l16.5 33q16 33 32.5 66.5t29 70.5t20.5 77.5t8 86.5h241v-125h-67v-450h67v-125
h-192v417l-17 -33q-17 -33 -33 -66.5t-28.5 -70t-20 -77t-7.5 -87.5h-131z" />
    <glyph glyph-name="N" unicode="N" horiz-adv-x="634" 
d="M414 0q0 46 -13 89t-34.5 84t-49 81.5t-55.5 80.5q-10 13 -14 18.5t-7 9.5t-6.5 9t-11.5 19v-391h-191v125h66v450h-66v125h193q0 -47 13 -90.5t34.5 -86t49 -83.5t56.5 -81q9 -13 13 -18t6.5 -8.5t6 -8.5t12.5 -18v394h191v-125h-66v-575h-127z" />
    <glyph glyph-name="O" unicode="O" 
d="M273 706q68 0 114.5 -32.5t75.5 -84t42 -114.5t13 -124q0 -58 -10.5 -121t-38 -115.5t-75 -86.5t-121.5 -34t-122 33.5t-75.5 85.5t-38 114.5t-10.5 121.5q0 62 13 125.5t42 115t76 84t115 32.5zM273 124q34 0 55.5 19.5t34.5 52t18 73t5 82.5t-5.5 82t-18 72t-34.5 51.5
t-55 19.5q-32 0 -54 -19.5t-36 -52t-20 -73.5t-6 -83t5 -82t18.5 -71.5t35.5 -51t57 -19.5z" />
    <glyph glyph-name="P" unicode="P" horiz-adv-x="509" 
d="M261 700q49 0 89.5 -17t70 -47t45.5 -70.5t16 -87.5q0 -38 -13.5 -77.5t-40.5 -71.5t-67 -52.5t-93 -20.5h-45v-256h-191v125h66v450h-66v125h229zM223 575v-194h40q23 0 40.5 9.5t29 24t17.5 32t6 33.5t-6 33t-17.5 30.5t-29 22.5t-39.5 9h-41z" />
    <glyph glyph-name="Q" unicode="Q" horiz-adv-x="573" 
d="M278 706q68 0 115 -32.5t76 -84t41.5 -114.5t12.5 -124q0 -60 -9.5 -122.5t-39.5 -116.5q6 -10 9.5 -20t8.5 -20h70v-125h-183v40t-2 27q-41 -20 -99 -20q-74 0 -121.5 33.5t-75.5 85.5t-38.5 114.5t-10.5 121.5q0 62 13 125.5t42 115t76 84t115 32.5zM346 290
q11 -19 21 -33.5t18 -26.5q7 27 9.5 57t2.5 62q0 43 -5.5 84.5t-19 74.5t-36.5 53t-58 20q-33 0 -56 -20t-37 -53t-20.5 -75.5t-6.5 -86.5q0 -43 5.5 -83.5t19 -72.5t36.5 -51.5t59 -19.5q18 0 33 5q-11 14 -23.5 32t-28.5 43z" />
    <glyph glyph-name="R" unicode="R" horiz-adv-x="559" 
d="M261 700q49 0 88 -16t66.5 -44t42 -67.5t14.5 -85.5q0 -53 -20.5 -101.5t-68.5 -79.5q29 -49 49 -91t31 -90h69v-125h-187q0 45 -5 80.5t-15.5 66.5t-27 61.5t-39.5 66.5h-35v-275h-191v125h66v450h-66v125h229zM223 575v-175h39q23 0 39 8t26.5 20.5t15 28.5t4.5 32
t-4.5 31.5t-15 27.5t-26.5 19.5t-38 7.5h-40z" />
    <glyph glyph-name="S" unicode="S" horiz-adv-x="479" 
d="M279 580h-61q-32 0 -48 -19.5t-16 -48.5q0 -23 28.5 -43.5t70.5 -43.5q44 -23 80.5 -44t63 -46t41 -57t14.5 -78q0 -78 -40 -127t-129 -67q-7 -2 -23 -3t-34 -1.5t-34.5 -1t-24.5 -0.5h-134v179h125v-56h66q49 3 74 20.5t25 54.5q0 22 -13.5 40.5t-34 34.5t-45 29.5
t-45.5 24.5q-5 2 -12 6.5t-12 6.5q-27 13 -51 27t-42.5 33.5t-29.5 46.5t-11 67t13.5 74t37.5 59t56 39t68 14h202v-173h-125v53z" />
    <glyph glyph-name="T" unicode="T" horiz-adv-x="557" 
d="M27 700h503v-173h-125v48h-66v-450h55v-125h-235v125h55v450h-62v-48h-125v173z" />
    <glyph glyph-name="U" unicode="U" horiz-adv-x="628" 
d="M217 700v-509q0 -23 11.5 -37.5t27.5 -23t34 -11.5t31 -3q11 0 26 3.5t29 12t24 23.5t10 39v506h191v-125h-66v-387q0 -59 -23 -97t-56 -59.5t-70 -29.5t-65 -8q-31 0 -70.5 6.5t-74.5 27.5t-59 61.5t-24 108.5v377h-66v125h190z" />
    <glyph glyph-name="V" unicode="V" horiz-adv-x="639" 
d="M612 700v-125h-69q-12 -59 -31.5 -116.5t-41.5 -116.5q-15 -41 -29.5 -82t-25.5 -83t-18 -86t-7 -91h-141q0 47 -7 91.5t-18.5 87t-26 83.5t-29.5 82q-21 59 -41 115.5t-31 115.5h-69v125h191q0 -94 24 -177.5t53 -163.5q6 -16 8.5 -23.5t4.5 -13t4 -12.5t7 -23l25 68
q14 39 28 81t25 86t18 89t7 89h190z" />
    <glyph glyph-name="W" unicode="W" horiz-adv-x="878" 
d="M851 700v-125h-69q-8 -53 -23.5 -108t-35.5 -124q-25 -81 -45.5 -165t-20.5 -178h-141q0 47 -6 87.5t-15.5 77t-21.5 70t-25 66.5q-2 5 -4 10.5t-4 11.5l-9 -22q-26 -65 -46.5 -137t-20.5 -164h-141q0 93 -20 174t-44 160q-20 66 -36.5 125t-25.5 116h-70v125h186
q0 -96 21 -181t47 -168q4 -15 6 -20.5t3.5 -9t3 -9t5.5 -20.5l9 24q13 33 25 67t21.5 70.5t15 77t5.5 86.5h130q0 -91 18.5 -160.5t44.5 -133.5l13 -31q5 18 10 32.5t10 32.5q25 81 45.5 165t20.5 178h184z" />
    <glyph glyph-name="X" unicode="X" horiz-adv-x="608" 
d="M235 700q0 -63 19.5 -118.5t50.5 -108.5q29 53 49.5 109t20.5 118h189v-125h-71q-19 -55 -50 -109t-66 -107q2 -7 6 -11q37 -57 70.5 -113t51.5 -110h71v-125h-189q0 70 -23.5 129t-58.5 118q-35 -58 -59 -119t-24 -128h-190v125h71q20 56 51.5 110.5t66.5 108.5
q5 8 6 10.5t4 4.5q-36 54 -66.5 107t-49.5 109h-70v125h190z" />
    <glyph glyph-name="Y" unicode="Y" horiz-adv-x="573" 
d="M205 700q0 -67 24 -129t57 -119q16 27 31 58t26.5 63t18.5 64t7 63h177v-125h-71q-20 -59 -52 -113.5t-74 -117.5v-219h54v-125h-234v125h55v219q-36 56 -71 115t-55 116h-71v125h178z" />
    <glyph glyph-name="Z" unicode="Z" horiz-adv-x="530" 
d="M474 700q0 -51 -14 -98t-36.5 -91.5t-51.5 -87.5t-59 -85q-38 -53 -73.5 -107.5t-56.5 -105.5h195v59h125v-184h-476q0 49 14 96t37 92t51.5 88t57.5 84q36 52 73 108t58 107h-161v-48h-125v173h442z" />
    <glyph glyph-name="bracketleft" unicode="[" horiz-adv-x="251" 
d="M219 855v-122h-65v-799h65v-122h-187v1043h187z" />
    <glyph glyph-name="backslash" unicode="\" horiz-adv-x="404" 
d="M387 0h-125l-249 700h125z" />
    <glyph glyph-name="bracketright" unicode="]" horiz-adv-x="251" 
d="M219 855v-1043h-187v122h65v799h-65v122h187z" />
    <glyph glyph-name="asciicircum" unicode="^" horiz-adv-x="469" 
d="M303 574q25 -38 49 -77.5t43 -80t30.5 -83.5t11.5 -89h-122q0 68 -23 119t-58 104q-32 -50 -56 -104.5t-24 -118.5h-122q0 46 11 88.5t29 82t41.5 77.5t48.5 75q3 5 11.5 17t19 27t22.5 32t24 31z" />
    <glyph glyph-name="underscore" unicode="_" horiz-adv-x="671" 
d="M647 -36v-98h-623v98h623z" />
    <glyph glyph-name="grave" unicode="`" horiz-adv-x="316" 
d="M303 531h-132l-161 170h158z" />
    <glyph glyph-name="a" unicode="a" horiz-adv-x="503" 
d="M74 468q26 22 62.5 30t86.5 8q94 0 148 -38t54 -118v-197q2 -21 11 -24.5t35 -3.5v-125h-80q-24 0 -49 19q-23 -13 -55.5 -19t-67.5 -6q-50 0 -86.5 9.5t-60 30.5t-34.5 55t-11 84q0 49 16.5 81.5t43.5 51.5t62 27t72 8q26 0 45 -2t38 -10v8q0 38 -17 52.5t-51 14.5
q-5 0 -15.5 -0.5t-24.5 -4.5v-45h-122v114zM303 170q0 33 -15.5 49.5t-64.5 16.5q-40 0 -57 -19.5t-17 -42.5q0 -41 20 -54.5t51 -13.5q29 0 45.5 4t25 11.5t10.5 19.5t2 29z" />
    <glyph glyph-name="b" unicode="b" horiz-adv-x="530" 
d="M303 506q55 0 93.5 -20.5t62 -54.5t34 -78t10.5 -91q0 -48 -9.5 -96t-32 -86t-60 -62t-92.5 -24q-48 0 -90 33v-27h-187v122h64v456h-64v122h187v-214q19 11 39 15t45 5zM381 262q0 16 -1.5 37.5t-9.5 41.5t-24.5 34t-46.5 14q-92 0 -92 -120q0 -26 3 -54t13 -51.5
t28.5 -39t49.5 -15.5q26 0 41.5 14.5t24 36.5t11.5 49t3 53z" />
    <glyph glyph-name="c" unicode="c" horiz-adv-x="468" 
d="M310 376q-19 11 -33.5 14t-21.5 3q-51 0 -79.5 -33.5t-28.5 -104.5q0 -42 8 -69.5t23 -44t36 -23t46 -6.5q10 0 25 3t29 11v70h122v-121q-14 -17 -34.5 -32t-44.5 -26t-50 -17t-51 -6q-113 0 -171 68t-58 193q0 120 57.5 185t166.5 66q15 0 37 -3t46.5 -12t49.5 -25
t48 -42v-118h-122v70z" />
    <glyph glyph-name="d" unicode="d" horiz-adv-x="530" 
d="M434 700v-578h64v-122h-187v20q-20 -13 -44.5 -19.5t-47.5 -6.5q-54 0 -91 24.5t-59.5 63t-32 87t-9.5 96.5q0 47 13 90.5t39 77t65 53.5t91 20q18 0 38.5 -5t37.5 -14v91h-65v122h188zM228 113q28 0 46 13t28.5 33t14.5 45.5t4 51.5q0 19 -2 43t-10 44t-23 34t-40 14
q-30 0 -49.5 -13t-30 -32t-14.5 -40.5t-4 -39.5q0 -27 4 -54t13 -49t24.5 -36t38.5 -14z" />
    <glyph glyph-name="e" unicode="e" horiz-adv-x="460" 
d="M247 99q7 0 18 2.5t19 5.5v51h122v-94q-6 -9 -22.5 -21t-38.5 -23t-47.5 -18.5t-50.5 -7.5q-47 0 -87.5 10t-70 33.5t-46 62t-16.5 94.5v136q0 49 13.5 83t39.5 54.5t64 29.5t88 9q96 0 148.5 -40.5t52.5 -132.5q0 -50 -9 -80.5t-32 -47t-62 -22.5t-100 -6
q-17 0 -35.5 1.5t-47.5 4.5q2 -45 24.5 -64.5t75.5 -19.5zM148 328q-1 -6 -1 -12.5v-30.5q12 -2 30 -3t47 -1q27 0 44 1t27 6t13.5 15.5t3.5 28.5q0 19 -6.5 31t-17.5 19.5t-25.5 10.5t-30.5 3q-25 0 -41 -4.5t-25 -13t-13 -21t-5 -29.5z" />
    <glyph glyph-name="f" unicode="f" horiz-adv-x="435" 
d="M99 500q4 38 16 74.5t34.5 66t58 47.5t87.5 18q30 0 58.5 -8.5t54.5 -22.5v-131h-123v52q-18 -2 -30 -11.5t-19.5 -24t-11 -30.5t-4.5 -30h101v-122h-102v-378h-187v122h66v256h-66v122h67z" />
    <glyph glyph-name="g" unicode="g" horiz-adv-x="511" 
d="M82 -83h122v-60q30 0 47 13.5t26 36t11.5 50t2.5 56.5q-20 -12 -41.5 -15.5t-35.5 -3.5q-56 0 -92.5 24t-57.5 62t-29 86t-8 96q0 47 8.5 91t30.5 78t58 54.5t92 20.5q15 0 35.5 -3.5t39.5 -14.5v12h188v-122h-65v-358q0 -74 -15.5 -126.5t-45.5 -85.5t-73.5 -48.5
t-98.5 -15.5q-24 0 -48.5 3t-50.5 8v162zM148 269q0 -28 2 -56.5t10 -51t22.5 -37t40.5 -14.5t40.5 10.5t22 29.5t9 45.5t1.5 58.5q0 22 -1 46t-8 43t-22.5 31.5t-43.5 12.5q-27 0 -42 -12t-21.5 -30t-8 -38.5t-1.5 -37.5z" />
    <glyph glyph-name="h" unicode="h" horiz-adv-x="558" 
d="M219 700v-216q23 16 44 19.5t35 3.5q52 0 85 -23t51.5 -61t25 -86.5t6.5 -99.5v-115h65v-122h-186v248q0 18 -1 42.5t-6.5 47t-17 38t-33.5 15.5q-38 0 -53 -19.5t-15 -39.5v-332h-187v122h65v456h-65v122h187z" />
    <glyph glyph-name="i" unicode="i" horiz-adv-x="306" 
d="M215 500v-378h64v-122h-187v378h-65v122h188zM216 685v-141h-141v141h141z" />
    <glyph glyph-name="j" unicode="j" horiz-adv-x="254" 
d="M220 500v-512q0 -35 -3.5 -72t-19.5 -75q-21 -43 -65.5 -66.5t-104.5 -30.5v122q23 5 37 11.5t21 19.5q7 14 9.5 36.5t2.5 56.5v388h-64v122h187zM222 700v-141h-141v141h141z" />
    <glyph glyph-name="k" unicode="k" horiz-adv-x="529" 
d="M219 700v-307q20 18 33 44t17 63h165v-122h-82q-10 -15 -16.5 -27t-14.5 -20l24 -36q28 -44 51 -85t37 -88h69v-122h-181q0 42 -6.5 76.5t-18 65t-28 59.5t-36.5 62q-5 -4 -13 -7v-256h-187v122h64v456h-64v122h187z" />
    <glyph glyph-name="l" unicode="l" horiz-adv-x="306" 
d="M215 700v-578h64v-122h-187v578h-65v122h188z" />
    <glyph glyph-name="m" unicode="m" horiz-adv-x="776" 
d="M219 500v-16q17 12 36 17.5t38 5.5q29 0 56 -13t45 -36q21 27 53 38t69 11q45 0 72.5 -11t48.5 -34q13 -15 22.5 -32t14.5 -40.5t7.5 -54.5t2.5 -73v-140h65v-122h-186v291q0 15 -1 32.5t-5.5 32t-14.5 24t-29 9.5q-23 0 -35.5 -12.5t-18 -31.5t-6.5 -40t-1 -39v-266
h-121v274q0 16 -1 36.5t-6 37.5t-16 29t-31 12q-17 0 -28 -7t-18 -18.5t-9.5 -25.5t-2.5 -28v-310h-187v122h64v256h-64v122h187z" />
    <glyph glyph-name="n" unicode="n" horiz-adv-x="559" 
d="M219 500v-20q21 15 42 20.5t32 5.5q54 0 89.5 -20.5t56 -54.5t29 -78t8.5 -91v-140h56v-122h-178v262q0 16 -1.5 37.5t-8.5 41.5t-20.5 34t-37.5 14q-32 0 -49.5 -26.5t-17.5 -64.5v-298h-187v122h65v256h-65v122h187z" />
    <glyph glyph-name="o" unicode="o" horiz-adv-x="491" 
d="M246 506q58 0 99 -22.5t67.5 -59t39 -82.5t12.5 -93q0 -48 -12 -94t-38.5 -81.5t-68 -57.5t-99.5 -22q-56 0 -97 22t-68 58.5t-40.5 83t-13.5 94.5q0 47 13 92.5t40 81t68 58t98 22.5zM343 249q0 16 -4 39.5t-14.5 45.5t-29.5 37.5t-49 15.5t-49 -14t-29.5 -35t-14.5 -44
t-4 -41q0 -26 6 -51.5t18.5 -45t30.5 -31.5t42 -12q26 0 44.5 11.5t30 31t17 43.5t5.5 50z" />
    <glyph glyph-name="p" unicode="p" horiz-adv-x="530" 
d="M306 506q55 0 93 -20.5t61 -54.5t33 -78t10 -91q0 -48 -9 -96t-31.5 -86t-60.5 -62t-97 -24q-17 0 -41.5 7.5t-44.5 21.5v-223h-187v122h64v456h-64v122h187v-21q24 14 48.5 20t38.5 7zM382 262q0 16 -2 37.5t-10 41t-24.5 33t-46.5 13.5q-28 0 -45.5 -13t-27.5 -33.5
t-13.5 -46t-3.5 -50.5q0 -20 4 -43t14.5 -42.5t27 -32.5t42.5 -13t42.5 13.5t26 35.5t13 48t3.5 52z" />
    <glyph glyph-name="q" unicode="q" horiz-adv-x="530" 
d="M231 506q14 -1 35.5 -5t44.5 -21v20h187v-122h-64v-456h64v-122h-187v221q-19 -14 -40 -20.5t-38 -6.5q-62 0 -101.5 24t-63 62.5t-32.5 86t-9 95.5q0 47 10 91t34 78t63 54.5t97 20.5zM148 262q0 -26 3.5 -52.5t13 -48t26 -35.5t42.5 -14q24 0 40.5 13t27 32.5
t15.5 42.5t5 44q0 25 -3.5 50.5t-13.5 46.5t-27.5 34t-45.5 13q-30 0 -46.5 -14t-24.5 -33.5t-10 -41t-2 -37.5z" />
    <glyph glyph-name="r" unicode="r" horiz-adv-x="446" 
d="M419 343h-123v47q-22 -4 -42 -14t-27 -20q-5 -9 -6.5 -28t-1.5 -45v-283h-187v122h65v256h-65v122h187v-28q25 17 54 25.5t54 8.5q18 0 39.5 -3t52.5 -17v-143z" />
    <glyph glyph-name="s" unicode="s" horiz-adv-x="431" 
d="M161 114h51q9 0 19.5 0.5t18.5 3.5t13.5 8.5t5.5 16.5q0 6 -9 14t-21 15t-24.5 13.5t-19.5 9.5q-39 18 -70 35.5t-53 35.5t-33.5 38.5t-11.5 45.5q0 29 14 56t38.5 48t58.5 33.5t75 12.5h166v-157h-122v51h-38q-9 0 -19.5 -2.5t-20 -7t-15.5 -11.5t-6 -17
q0 -11 24.5 -25.5t59.5 -28.5q29 -12 58 -29t52 -36.5t37.5 -42t14.5 -46.5q0 -42 -13 -70.5t-34.5 -46t-49 -24.5t-55.5 -7h-213v157h122v-43z" />
    <glyph glyph-name="t" unicode="t" horiz-adv-x="326" 
d="M294 17q-32 -11 -55 -17t-43 -6q-41 0 -63 15t-33 41t-13 61t-2 75v192h-53v122h53v30h-48v123h171v-153h76v-122h-76v-185q0 -38 2 -55.5t11 -19.5q16 0 32.5 4t40.5 13v-118z" />
    <glyph glyph-name="u" unicode="u" horiz-adv-x="578" 
d="M358 0v28q-20 -16 -46 -25t-47 -9q-46 0 -78.5 20.5t-53.5 54t-31 77.5t-10 91v141h-65v122h186v-272q0 -14 1.5 -33.5t8 -37.5t19.5 -31t37 -13t39 11t24 29t12.5 41.5t3.5 48.5v257h188v-122h-65v-256h65v-122h-188z" />
    <glyph glyph-name="v" unicode="v" horiz-adv-x="568" 
d="M258 0q-52 91 -94 186t-68 192h-69v122h181q0 -32 5.5 -70t16 -78.5t24 -81.5t30.5 -78q17 38 31 79t23.5 81.5t15 78.5t5.5 69h182v-122h-69q-16 -70 -55 -161t-106 -217h-53z" />
    <glyph glyph-name="w" unicode="w" horiz-adv-x="722" 
d="M695 500v-122h-64q-7 -38 -16.5 -69t-19.5 -61q-8 -23 -15 -47t-12 -53.5t-8.5 -65.5t-3.5 -82h-138q-1 70 -18 121t-38 80q-10 -15 -20 -31t-18 -38.5t-13 -54t-5 -77.5h-138q0 46 -3.5 82.5t-9.5 65.5t-13.5 53.5t-14.5 47.5q-9 27 -19 60t-15 69h-66v122h180
q0 -52 3.5 -91t9.5 -70t14 -57t17 -52q9 14 17.5 30t14.5 38t10 51.5t4 69.5h128q0 -42 4 -72t10.5 -52t15 -37.5t17.5 -28.5q9 26 17 52t14 57.5t10 70.5t4 91h178z" />
    <glyph glyph-name="x" unicode="x" horiz-adv-x="519" 
d="M231 500q0 -48 8 -82.5t20 -61.5q13 28 21 63.5t8 80.5h187v-122h-76q-13 -35 -32 -64.5t-40 -57.5q25 -29 47.5 -61t36.5 -73h76v-122h-187q0 57 -11.5 97t-29.5 70q-17 -31 -28.5 -73t-11.5 -94h-187v122h76q15 42 37 72.5t48 62.5q-20 26 -40.5 56t-32.5 65h-77v122
h188z" />
    <glyph glyph-name="y" unicode="y" horiz-adv-x="569" 
d="M542 500v-122h-65v-365q0 -26 -3 -53.5t-9 -54t-15.5 -49t-21.5 -38.5q-27 -35 -70.5 -54.5t-107.5 -19.5q-25 0 -50 4t-49 11v158h122v-63q26 0 42 14.5t25 36.5t12 48t3 49v18q-19 -14 -42.5 -20.5t-47.5 -6.5q-51 0 -84.5 21.5t-53 57t-27.5 80.5t-8 92v133h-65v123
h186v-269q0 -17 1.5 -37.5t7.5 -39t19.5 -31t37.5 -12.5q32 0 54 31.5t22 85.5v272h187z" />
    <glyph glyph-name="z" unicode="z" horiz-adv-x="444" 
d="M403 500v-29q0 -41 -11.5 -75.5t-30 -65t-42 -57.5t-48.5 -52q-23 -23 -45.5 -47.5t-39.5 -51.5h104v49h122v-171h-380q0 50 11 88t29.5 69t41.5 56t47 49q27 27 52 54.5t42 61.5h-100v-35h-122v157h370z" />
    <glyph glyph-name="braceleft" unicode="{" horiz-adv-x="281" 
d="M257 -162q-53 -29 -95 -29t-70.5 25.5t-28.5 81.5q0 18 2.5 39.5t6.5 42.5q2 15 5 40t6 54t5 59t3 54q-1 11 -8 21t-20 27q-4 4 -7.5 8t-8.5 9.5t-11.5 14t-16.5 22.5q14 17 25 30t19 21q13 15 20.5 24.5t7.5 18.5q0 7 -1 21.5t-2.5 33t-4 40t-4.5 43.5t-4.5 55.5t-4 66
t-2.5 59.5t-1 37q0 56 26.5 80t61.5 24q23 0 49.5 -10.5t52.5 -28.5v-100q-42 23 -54 23q-11 0 -16 -15.5t-5 -39.5q0 -26 4.5 -62.5t10.5 -74t10.5 -72.5t4.5 -59q0 -22 -4.5 -39t-12 -31t-16 -25.5t-16.5 -20.5q17 -21 32.5 -47t15.5 -64q0 -20 -3.5 -48.5t-8 -59.5
t-8 -60.5t-3.5 -51.5q0 -24 4.5 -40t18.5 -16q7 0 46 16v-97z" />
    <glyph glyph-name="bar" unicode="|" horiz-adv-x="186" 
d="M32 700h122v-700h-122v700z" />
    <glyph glyph-name="braceright" unicode="}" horiz-adv-x="292" 
d="M24 -65q39 -16 46 -16q14 0 18.5 16t4.5 40q0 13 -1.5 36.5t-4 50t-5.5 50.5t-5 38q-4 20 -4 41q0 30 10.5 57.5t32.5 60.5q-7 8 -15.5 18.5t-15.5 24.5t-11.5 31t-4.5 39q0 24 4.5 59t10.5 72.5t10.5 74t4.5 62.5q0 24 -5 39.5t-16 15.5t-54 -23v100q26 18 52.5 28.5
t49.5 10.5q35 0 61.5 -24t26.5 -80q0 -10 -1 -37t-2.5 -59.5t-4 -66t-4.5 -55.5t-4.5 -43.5t-4 -40t-2.5 -33t-1 -21.5q0 -9 7.5 -18.5t20.5 -24.5q8 -8 19 -21t25 -30q-10 -14 -16.5 -22.5t-12 -14.5t-9.5 -10l-9 -9q-11 -13 -18 -23.5t-7 -23.5q1 -24 3 -53.5t5 -58.5
t6 -54t6 -40q4 -23 6 -43t2 -39q0 -56 -28.5 -81.5t-70.5 -25.5q-20 0 -44.5 7.5t-50.5 21.5v97z" />
    <glyph glyph-name="asciitilde" unicode="~" horiz-adv-x="468" 
d="M450 406q-20 -47 -38.5 -78t-36.5 -50t-36.5 -26.5t-36.5 -7.5t-34.5 8t-31.5 18t-28.5 18t-25.5 8q-11 0 -21.5 -10.5t-19.5 -37.5h-125q21 48 41.5 79.5t40.5 50.5t39 27t37 8t34 -7.5t30.5 -17t27 -17t23.5 -7.5t19 9t15 33h127z" />
    <glyph glyph-name="exclamdown" unicode="&#xa1;" horiz-adv-x="207" 
d="M42 292h123v-492h-123v492zM175 500v-142h-143v142h143z" />
    <glyph glyph-name="cent" unicode="&#xa2;" horiz-adv-x="463" 
d="M190 3q-81 18 -122 82.5t-41 169.5q0 104 39.5 165.5t123.5 77.5v48h99v-43q31 -6 71 -24t72 -55v-118h-122v66l-21 8v-262q11 1 25 9v69h122v-121q-24 -31 -64 -51.5t-83 -26.5v-43h-99v49zM147 255q0 -51 11.5 -81t31.5 -44v239q-20 -14 -31.5 -42t-11.5 -72z" />
    <glyph glyph-name="sterling" unicode="&#xa3;" horiz-adv-x="454" 
d="M427 24q-20 -22 -50 -27.5t-62 -5.5q-25 0 -47.5 1t-42.5 3q-19 2 -37.5 3.5t-37.5 1.5q-23 0 -36 -0.5t-19 -1.5l-8 -1q-13 0 -22 7.5t-15 18t-8.5 22.5t-2.5 21q0 38 9.5 77t18.5 81q4 19 6.5 31t6.5 35h-48v118h46q-6 40 -9 67t-4.5 44t-2 26.5t-0.5 15.5
q0 72 33 108.5t78 36.5q55 0 94.5 -26t69.5 -75q-18 -18 -38.5 -32.5t-44.5 -34.5q-18 24 -33 38t-24 14q-17 0 -17 -42v-10.5t1.5 -23.5t5 -41.5t9.5 -64.5h118v-118h-112q-4 -34 -11.5 -79t-15.5 -80q0 -2 -0.5 -4t-0.5 -4v-4q3 0 6 -0.5t5 -0.5q23 -4 46.5 -6.5
t46.5 -2.5h13.5t13.5 1v67h122v-153z" />
    <glyph glyph-name="currency" unicode="&#xa4;" horiz-adv-x="570" 
d="M543 509l-59 -65q14 -26 22 -55t8 -58q0 -33 -10 -64.5t-27 -59.5l59 -65l-85 -81l-61 66q-49 -26 -104 -26q-29 0 -58.5 7.5t-54.5 21.5q-14 -17 -31.5 -35t-28.5 -32l-81 87l57 63q-15 25 -23.5 55.5t-8.5 62.5q0 28 8 56t21 53l-59 65l81 86l59 -63q26 17 55 24t64 7
q31 0 60 -8t55 -22q15 16 32.5 36t27.5 31zM174 331q0 -48 32 -80t80 -32q23 0 43.5 8.5t35.5 23.5t23.5 35.5t8.5 44.5t-8.5 44t-23.5 35t-35.5 23.5t-43.5 8.5q-24 0 -44.5 -8.5t-35.5 -23.5t-23.5 -35t-8.5 -44z" />
    <glyph glyph-name="yen" unicode="&#xa5;" horiz-adv-x="592" 
d="M237 333q-35 57 -69 115t-54 115h-87v122h192q0 -66 23.5 -126t55.5 -116q15 27 30 56.5t26.5 61t18.5 63t7 61.5h185v-122h-81q-11 -32 -26.5 -60.5t-32.5 -56.5t-34 -55.5t-31 -57.5h126v-77h-126v-26h126v-91h-126v-17h55v-122h-229v122h51v31h-129v77h129v26h-129v77
h129z" />
    <glyph glyph-name="brokenbar" unicode="&#xa6;" horiz-adv-x="186" 
d="M32 370v330h122v-330h-122zM154 331v-331h-122v331h122z" />
    <glyph glyph-name="section" unicode="&#xa7;" horiz-adv-x="373" 
d="M182 102q9 0 17 10t10 31q0 13 -1 30.5t-5 22.5q-35 0 -65.5 8t-53 24.5t-35.5 43.5t-13 65v9q2 23 10 50t25 48q-9 21 -15.5 52.5t-6.5 52.5q0 40 13 69.5t34 49t48 29t54 9.5q20 0 36 -2.5t32 -12t32 -28t36 -51.5l-91 -65q-17 29 -26.5 39.5t-17.5 10.5
q-10 0 -18 -10.5t-9 -31.5q0 -8 1 -18t3.5 -19t5.5 -15t7 -6q34 -5 63 -14.5t50 -26.5t32.5 -43t11.5 -63v-9q-1 -24 -8.5 -48.5t-24.5 -44.5q9 -21 13.5 -51.5t4.5 -59.5q-5 -72 -41 -107.5t-112 -35.5q-48 0 -86.5 26t-64.5 75l83 77q5 -9 14 -21.5t19 -23t20.5 -18
t18.5 -7.5zM210 312q7 2 9.5 10.5t2.5 18.5v8q0 22 -13 30t-38 13q-6 -3 -10 -18t-4 -30q0 -18 16.5 -24.5t36.5 -7.5z" />
    <glyph glyph-name="dieresis" unicode="&#xa8;" horiz-adv-x="343" 
d="M32 585v115h115v-115h-115zM197 585v115h114v-115h-114z" />
    <glyph glyph-name="copyright" unicode="&#xa9;" horiz-adv-x="769" 
d="M27 351q0 73 28.5 137.5t77.5 113t114 76.5t138 28t137.5 -28t113.5 -76.5t77.5 -113t28.5 -137.5t-28.5 -138t-77.5 -113.5t-113.5 -77t-137.5 -28.5t-138 28.5t-114 77t-77.5 113.5t-28.5 138zM141 351q0 -50 19.5 -94t53 -77.5t77.5 -53t94 -19.5q49 0 93.5 19.5
t78 53t53 77.5t19.5 94q0 49 -19.5 93t-53 77t-78 52.5t-93.5 19.5q-50 0 -94 -19.5t-77.5 -52.5t-53 -77t-19.5 -93zM435 436q-13 5 -26 7t-19 3q-42 -1 -65 -22.5t-23 -75.5q0 -31 7 -51.5t19.5 -32.5t29.5 -17t38 -5q5 0 17 2.5t26 8.5v54h109v-100q-25 -29 -69 -46.5
t-87 -17.5q-97 0 -147 53.5t-50 151.5q0 95 49 146t144 52q13 0 31.5 -2.5t39.5 -9t43 -19.5t43 -34v-98h-110v53z" />
    <glyph glyph-name="ordfeminine" unicode="&#xaa;" horiz-adv-x="416" 
d="M60 656q9 8 24 14.5t33 10.5t36 6t33 2q82 0 124 -30t42 -96v-157q0 -13 3.5 -15t11.5 -2h22v-112h-68q-10 0 -22.5 2t-24.5 11q-18 -8 -41 -13t-50 -5q-41 0 -70.5 7.5t-48.5 24.5t-28 45.5t-9 69.5q0 40 13.5 66.5t35.5 42.5t50.5 22t58.5 6q17 0 31 -1t28 -5
q-2 16 -12.5 28t-44.5 13v-16h-127v81zM243 417q0 18 -11.5 29t-46.5 11q-28 0 -36.5 -11.5t-8.5 -26.5q0 -22 10.5 -34.5t32.5 -12.5q32 0 46 10t14 35z" />
    <glyph glyph-name="guillemotleft" unicode="&#xab;" horiz-adv-x="484" 
d="M32 278l219 253v-178l-63 -74l63 -73v-182zM238 278l219 253v-178l-63 -74l63 -73v-182z" />
    <glyph glyph-name="logicalnot" unicode="&#xac;" horiz-adv-x="490" 
d="M458 357v-240h-123v118h-303v122h426z" />
    <glyph glyph-name="registered" unicode="&#xae;" horiz-adv-x="769" 
d="M27 351q0 73 28.5 137.5t77.5 113t114 76.5t138 28t137.5 -28t113.5 -76.5t77.5 -113t28.5 -137.5t-28.5 -138t-77.5 -113.5t-113.5 -77t-137.5 -28.5t-138 28.5t-114 77t-77.5 113.5t-28.5 138zM560 183q32 33 50.5 76.5t18.5 91.5q0 49 -19.5 93t-53 77t-78 52.5
t-93.5 19.5q-38 0 -72.5 -11t-63.5 -30h127q30 0 55.5 -8.5t43.5 -21.5q26 -18 39 -45t13 -53q0 -31 -16 -59.5t-45 -46.5q17 -26 29 -44.5t18 -39.5h47v-51zM141 351q0 -53 21.5 -99t58.5 -80v62h43v222h-43v72q-37 -33 -58.5 -79t-21.5 -98zM263 141q56 -34 122 -34
t122 34h-88q0 27 -3 47t-9 37t-15.5 33t-22.5 34v-151h-106zM369 456v-64h8q26 0 37.5 9.5t11.5 23.5t-11 22.5t-37 8.5h-9z" />
    <glyph glyph-name="macron" unicode="&#xaf;" horiz-adv-x="426" 
d="M394 731v-112h-360v112h360z" />
    <glyph glyph-name="degree" unicode="&#xb0;" horiz-adv-x="346" 
d="M27 560q0 30 11.5 57t31.5 46.5t47 31t57 11.5t56 -11.5t46 -31t31.5 -46.5t11.5 -57t-11.5 -56t-31.5 -46t-46 -31.5t-56 -11.5t-57 11.5t-47 31.5t-31.5 46t-11.5 56zM134 560q0 -17 11.5 -28t28.5 -11t28.5 11t11.5 28t-11.5 29t-28.5 12t-28.5 -12t-11.5 -29z" />
    <glyph glyph-name="plusminus" unicode="&#xb1;" horiz-adv-x="470" 
d="M173 299h-142v122h142v148h122v-148h142v-122h-142v-147h-122v147zM438 122v-122h-406v122h406z" />
    <glyph glyph-name="uni00B2" unicode="&#xb2;" horiz-adv-x="322" 
d="M27 686q20 38 50 54.5t62 16.5q27 0 52 -10.5t45 -28.5t32 -42.5t12 -53.5q0 -18 -4.5 -37t-15.5 -41.5t-30 -48.5t-48 -57h45v30h68v-122h-266v89q27 22 53 45t46.5 46t32.5 45t12 42q0 13 -7 28t-21 15h-6t-6 -1v-37h-106v68v0z" />
    <glyph glyph-name="uni00B3" unicode="&#xb3;" horiz-adv-x="334" 
d="M31 704q22 27 53.5 40t61.5 13q39 0 67 -11t46 -29t26 -40t8 -43q0 -16 -4.5 -35t-17.5 -34q22 -19 29 -46t7 -50q0 -26 -9.5 -50t-29 -43t-49.5 -30.5t-72 -11.5q-13 0 -29.5 3.5t-33.5 9.5t-32.5 13.5t-24.5 16.5v97h91v-30q7 -2 16.5 -5.5t20.5 -3.5q17 0 30.5 8
t13.5 28q0 6 -1.5 12t-7 11.5t-15 9t-25.5 3.5l-55 -4v90q7 -2 14 -2.5t12 -1.5q6 -1 11 -1q26 0 39 15.5t13 30.5q0 13 -9.5 20t-21.5 7q-9 0 -18 -2.5t-16 -6.5v-32h-88v84z" />
    <glyph glyph-name="acute" unicode="&#xb4;" horiz-adv-x="308" 
d="M142 700h158l-161 -170h-131z" />
    <glyph glyph-name="mu" unicode="&#xb5;" horiz-adv-x="578" 
d="M32 378v122h177v-296q1 -16 4.5 -32.5t11 -30t20.5 -22t34 -8.5q24 0 39.5 11t24.5 28.5t12.5 38t3.5 39.5v272h187v-122h-64v-256h64v-122h-187v16q-17 -12 -38 -17t-42 -6q-40 0 -70 9v-202h-177v122h55v456h-55z" />
    <glyph glyph-name="mu" unicode="&#x3bc;" horiz-adv-x="578" 
d="M32 378v122h177v-296q1 -16 4.5 -32.5t11 -30t20.5 -22t34 -8.5q24 0 39.5 11t24.5 28.5t12.5 38t3.5 39.5v272h187v-122h-64v-256h64v-122h-187v16q-17 -12 -38 -17t-42 -6q-40 0 -70 9v-202h-177v122h55v456h-55z" />
    <glyph glyph-name="paragraph" unicode="&#xb6;" horiz-adv-x="635" 
d="M381 700v-700h-122v266h-23q-52 0 -91 20t-65.5 51.5t-39.5 70t-13 75.5t13.5 75.5t40.5 70t68 51.5t95 20h137zM603 700v-122h-65v-456h65v-122h-187v700h187z" />
    <glyph glyph-name="periodcentered" unicode="&#xb7;" horiz-adv-x="206" 
d="M32 224v142h142v-142h-142z" />
    <glyph glyph-name="cedilla" unicode="&#xb8;" horiz-adv-x="228" 
d="M40 0h114v-43q7 -5 16 -12t16.5 -16t12.5 -19t5 -20q0 -24 -18 -45t-45 -38t-57 -30t-54 -20v107q9 3 22 6.5t13 10.5q0 4 -7 8.5t-18 12.5v98z" />
    <glyph glyph-name="uni00B9" unicode="&#xb9;" horiz-adv-x="320" 
d="M116 750h96v-304h74v-103h-253v103h74v149l-28 -25l-54 60z" />
    <glyph glyph-name="ordmasculine" unicode="&#xba;" horiz-adv-x="416" 
d="M207 706q48 0 82 -18.5t56.5 -48.5t33 -68t10.5 -77t-10.5 -77t-32.5 -67.5t-56.5 -47.5t-83.5 -18q-47 0 -80.5 18.5t-55.5 48.5t-32.5 68t-10.5 78q0 39 9.5 76t30.5 66.5t55.5 48t84.5 18.5zM283 494q0 13 -3 32t-11.5 36t-23 29.5t-38.5 12.5q-23 0 -38 -11
t-23 -27.5t-11 -35t-3 -32.5q0 -21 4.5 -40.5t13.5 -35t23 -25t33 -9.5q21 0 35.5 9t24 24t13.5 34t4 39z" />
    <glyph glyph-name="guillemotright" unicode="&#xbb;" horiz-adv-x="483" 
d="M232 24v182l63 72l-63 75v178l219 -253zM27 24v182l63 72l-63 75v178l218 -253z" />
    <glyph glyph-name="onequarter" unicode="&#xbc;" horiz-adv-x="763" 
d="M605 700h117l-494 -700h-115zM577 407h133v-98h-37v-105h37v-96h-37v-13h37v-95h-142v108h-155v73zM530 204h38v53zM117 700h96v-304h74v-103h-253v103h74v149l-28 -25l-54 60z" />
    <glyph glyph-name="onehalf" unicode="&#xbd;" horiz-adv-x="786" 
d="M600 700h116l-493 -700h-116zM497 340q20 38 50 54.5t62 16.5q27 0 52 -10.5t45 -28.5t32 -42.5t12 -53.5q0 -18 -4.5 -37t-15.5 -41.5t-30 -48.5t-48 -57h45v30h68v-122h-266v89q27 22 53 45t46.5 46t32.5 45t12 42q0 13 -7 28t-21 15h-6t-6 -1v-37h-106v68zM118 700h96
v-304h74v-103h-253v103h74v149l-28 -25l-54 60z" />
    <glyph glyph-name="threequarters" unicode="&#xbe;" horiz-adv-x="734" 
d="M583 700h117l-492 -700h-116zM32 653q22 27 53.5 40t61.5 13q39 0 67 -11t46 -29t26 -40t8 -43q0 -16 -4.5 -35t-17.5 -34q22 -19 29 -46t7 -50q0 -26 -9.5 -50t-29 -43t-49.5 -30.5t-72 -11.5q-13 0 -29.5 3.5t-33.5 9.5t-32.5 13.5t-24.5 16.5v97h91v-30
q7 -2 16.5 -5.5t20.5 -3.5q17 0 30.5 8t13.5 28q0 6 -1.5 12t-7 11.5t-15 9t-25.5 3.5l-55 -4v90q7 -2 14 -2.5t12 -1.5q6 -1 11 -1q26 0 39 15.5t13 30.5q0 13 -9.5 20t-21.5 7q-9 0 -18 -2.5t-16 -6.5v-32h-88v84zM565 407h133v-98h-37v-105h37v-96h-37v-13h37v-95h-142
v108h-155v73zM518 204h38v53z" />
    <glyph glyph-name="questiondown" unicode="&#xbf;" horiz-adv-x="416" 
d="M395 -16v-169h-171q-53 0 -89.5 18.5t-59 48.5t-32.5 67t-10 75t9.5 75t32 67t60 48.5t92.5 18.5v83h123v-204h-127q-21 0 -34 -7.5t-20.5 -19.5t-10 -27.5t-2.5 -31.5t3.5 -32t12 -28.5t22.5 -20.5t36 -8h44v47h121zM358 500v-142h-142v142h142z" />
    <glyph glyph-name="Agrave" unicode="&#xc0;" horiz-adv-x="637" 
d="M95 125q11 57 31.5 116t40.5 114q14 39 28.5 81t26 86t19 88.5t7.5 89.5h141q0 -45 7 -90t18.5 -88t26 -85t29.5 -81q21 -57 41 -115.5t31 -115.5h69v-125h-190q0 50 -5.5 96.5t-15.5 86.5h-163q-9 -41 -14.5 -88t-5.5 -95h-191v125h69zM360 307q-10 29 -20.5 62.5
t-21.5 65.5q-10 -32 -19.5 -64t-20.5 -64h82zM384 724h-132l-161 170h158z" />
    <glyph glyph-name="Aacute" unicode="&#xc1;" horiz-adv-x="639" 
d="M96 125q11 57 31.5 116t40.5 114q14 39 28.5 81t26 86t19 88.5t7.5 89.5h141q0 -45 7 -90t18.5 -88t26 -85t29.5 -81q21 -57 41 -115.5t31 -115.5h69v-125h-190q0 50 -5.5 96.5t-15.5 86.5h-163q-9 -41 -14.5 -88t-5.5 -95h-191v125h69zM361 307q-10 29 -20.5 62.5
t-21.5 65.5q-10 -32 -19.5 -64t-20.5 -64h82zM381 894h158l-161 -170h-131z" />
    <glyph glyph-name="Acircumflex" unicode="&#xc2;" horiz-adv-x="639" 
d="M96 125q11 57 31.5 116t40.5 114q14 39 28.5 81t26 86t19 88.5t7.5 89.5h141q0 -45 7 -90t18.5 -88t26 -85t29.5 -81q21 -57 41 -115.5t31 -115.5h69v-125h-190q0 50 -5.5 96.5t-15.5 86.5h-163q-9 -41 -14.5 -88t-5.5 -95h-191v125h69zM361 307q-10 29 -20.5 62.5
t-21.5 65.5q-10 -32 -19.5 -64t-20.5 -64h82zM368 728l-50 46l-50 -46h-156l206 188l209 -188h-159z" />
    <glyph glyph-name="Atilde" unicode="&#xc3;" horiz-adv-x="639" 
d="M96 125q11 57 31.5 116t40.5 114q14 39 28.5 81t26 86t19 88.5t7.5 89.5h141q0 -45 7 -90t18.5 -88t26 -85t29.5 -81q21 -57 41 -115.5t31 -115.5h69v-125h-190q0 50 -5.5 96.5t-15.5 86.5h-163q-9 -41 -14.5 -88t-5.5 -95h-191v125h69zM361 307q-10 29 -20.5 62.5
t-21.5 65.5q-10 -32 -19.5 -64t-20.5 -64h82zM502 858q-33 -81 -64.5 -110.5t-62.5 -29.5q-14 0 -27.5 6.5t-25.5 15t-23 15t-21 6.5t-18 -8.5t-15 -30.5h-109q18 41 35.5 68t34.5 43.5t33 23t32 6.5q13 0 25.5 -6t24.5 -13.5t23.5 -13.5t20.5 -6t16 7t12 27h109z" />
    <glyph glyph-name="Adieresis" unicode="&#xc4;" horiz-adv-x="639" 
d="M96 125q11 57 31.5 116t40.5 114q14 39 28.5 81t26 86t19 88.5t7.5 89.5h141q0 -45 7 -90t18.5 -88t26 -85t29.5 -81q21 -57 41 -115.5t31 -115.5h69v-125h-190q0 50 -5.5 96.5t-15.5 86.5h-163q-9 -41 -14.5 -88t-5.5 -95h-191v125h69zM361 307q-10 29 -20.5 62.5
t-21.5 65.5q-10 -32 -19.5 -64t-20.5 -64h82zM180 732v115h115v-115h-115zM345 732v115h114v-115h-114z" />
    <glyph glyph-name="Aring" unicode="&#xc5;" horiz-adv-x="639" 
d="M96 125q11 53 29 107.5t43 122.5q13 35 26.5 74t25 78.5t19.5 78t10 72.5q-25 17 -40 44.5t-15 60.5q0 26 10 49t27 40t39.5 27t48.5 10t49 -10t40 -27t27 -40t10 -49q0 -32 -15.5 -59t-39.5 -44q4 -75 28 -151.5t53 -153.5q23 -62 42 -118.5t30 -111.5h69v-125h-190
q0 50 -5.5 96.5t-15.5 86.5h-163q-9 -41 -14.5 -88t-5.5 -95h-191v125h69zM361 307q-10 29 -20.5 62.5t-21.5 65.5q-10 -32 -19.5 -64t-20.5 -64h82zM298 763q0 -9 6 -15t15 -6q11 0 17 6t6 15q0 23 -23 23q-9 0 -15 -6t-6 -17z" />
    <glyph glyph-name="AE" unicode="&#xc6;" horiz-adv-x="822" 
d="M790 700v-173h-125v48h-164v-140h175v-125h-175v-185h164v53h125v-178h-480v125h67v58h-121q-9 -40 -14.5 -87.5t-5.5 -95.5h-209v125h87q11 62 31 120.5t43 119.5l5 13q29 78 54.5 157t33.5 165h509zM377 307v196q-18 -41 -30.5 -69.5t-21 -50t-15 -39.5t-13.5 -37h80z
" />
    <glyph glyph-name="Ccedilla" unicode="&#xc7;" horiz-adv-x="550" 
d="M489 473h-124v68q-5 6 -11.5 12.5t-17 12t-25 9t-35.5 3.5q-34 0 -57.5 -24.5t-38.5 -60t-21.5 -75t-6.5 -70.5q0 -46 9 -87.5t25.5 -73t39.5 -50t51 -18.5q29 0 52 9t42 23.5t34 32.5t29 36l89 -91q-16 -20 -33 -40t-37.5 -36.5t-44.5 -29.5t-55 -20q15 -12 29.5 -27.5
t14.5 -34.5q0 -24 -18.5 -45.5t-46 -39t-58.5 -30.5t-55 -20v109q14 4 23 7.5t9 9.5q0 8 -22 22v46q-46 11 -83.5 42t-63.5 77t-40.5 104.5t-14.5 124.5q0 75 18 140t51 113.5t79 76.5t102 28q46 0 81.5 -12t61.5 -30.5t43 -40t26 -40.5v-110z" />
    <glyph glyph-name="Egrave" unicode="&#xc8;" horiz-adv-x="544" 
d="M512 700v-173h-125v48h-164v-140h174v-125h-174v-185h164v53h125v-178h-480v125h67v185h-51v125h51v140h-67v125h480zM366 725h-132l-161 170h158z" />
    <glyph glyph-name="Eacute" unicode="&#xc9;" horiz-adv-x="544" 
d="M512 700v-173h-125v48h-164v-140h174v-125h-174v-185h164v53h125v-178h-480v125h67v185h-51v125h51v140h-67v125h480zM322 894h158l-161 -170h-131z" />
    <glyph glyph-name="Ecircumflex" unicode="&#xca;" horiz-adv-x="544" 
d="M512 700v-173h-125v48h-164v-140h174v-125h-174v-185h164v53h125v-178h-480v125h67v185h-51v125h51v140h-67v125h480zM330 724l-50 46l-50 -46h-156l206 188l209 -188h-159z" />
    <glyph glyph-name="Edieresis" unicode="&#xcb;" horiz-adv-x="544" 
d="M512 700v-173h-125v48h-164v-140h174v-125h-174v-185h164v53h125v-178h-480v125h67v185h-51v125h51v140h-67v125h480zM132 736v115h115v-115h-115zM297 736v115h114v-115h-114z" />
    <glyph glyph-name="Igrave" unicode="&#xcc;" horiz-adv-x="355" 
d="M122 125v450h-76v125h277v-125h-76v-450h76v-125h-277v125h76zM268 729h-132l-161 170h158z" />
    <glyph glyph-name="Iacute" unicode="&#xcd;" horiz-adv-x="348" 
d="M108 125v450h-76v125h277v-125h-76v-450h76v-125h-277v125h76zM217 893h158l-161 -170h-131z" />
    <glyph glyph-name="Icircumflex" unicode="&#xce;" horiz-adv-x="341" 
d="M185 735l-22 27l-21 -27h-160l181 176l183 -176h-161zM108 125v450h-76v125h277v-125h-76v-450h76v-125h-277v125h76z" />
    <glyph glyph-name="Idieresis" unicode="&#xcf;" horiz-adv-x="341" 
d="M107 125v450h-76v125h277v-125h-76v-450h76v-125h-277v125h76zM31 718v115h115v-115h-115zM196 718v115h114v-115h-114z" />
    <glyph glyph-name="Eth" unicode="&#xd0;" horiz-adv-x="585" 
d="M98 420v153h-66v127h256q56 0 105 -26.5t86 -73.5t58 -111t21 -138q0 -75 -21.5 -139t-58 -111.5t-86 -74.5t-105.5 -27h-23h-53.5t-79 0.5t-99.5 0.5v125h66v170h-66v125h66zM223 573v-153h66v-125h-66v-170h64q29 0 55.5 18t46.5 49t32 72t12 87t-12 86.5t-32 70.5
t-46.5 47.5t-55.5 17.5h-64z" />
    <glyph glyph-name="Ntilde" unicode="&#xd1;" horiz-adv-x="634" 
d="M414 0q0 46 -13 89t-34.5 84t-49 81.5t-55.5 80.5q-10 13 -14 18.5t-7 9.5t-6.5 9t-11.5 19v-391h-191v125h66v450h-66v125h193q0 -47 13 -90.5t34.5 -86t49 -83.5t56.5 -81q9 -13 13 -18t6.5 -8.5t6 -8.5t12.5 -18v394h191v-125h-66v-575h-127zM505 878
q-33 -81 -64.5 -110.5t-62.5 -29.5q-14 0 -27.5 6.5t-25.5 15t-23 15t-21 6.5t-18 -8.5t-15 -30.5h-109q18 41 35.5 68t34.5 43.5t33 23t32 6.5q13 0 25.5 -6t24.5 -13.5t23.5 -13.5t20.5 -6t16 7t12 27h109z" />
    <glyph glyph-name="Ograve" unicode="&#xd2;" 
d="M273 706q68 0 114.5 -32.5t75.5 -84t42 -114.5t13 -124q0 -58 -10.5 -121t-38 -115.5t-75 -86.5t-121.5 -34t-122 33.5t-75.5 85.5t-38 114.5t-10.5 121.5q0 62 13 125.5t42 115t76 84t115 32.5zM273 124q34 0 55.5 19.5t34.5 52t18 73t5 82.5t-5.5 82t-18 72t-34.5 51.5
t-55 19.5q-32 0 -54 -19.5t-36 -52t-20 -73.5t-6 -83t5 -82t18.5 -71.5t35.5 -51t57 -19.5zM349 734h-132l-161 170h158z" />
    <glyph glyph-name="Oacute" unicode="&#xd3;" 
d="M273 706q68 0 114.5 -32.5t75.5 -84t42 -114.5t13 -124q0 -58 -10.5 -121t-38 -115.5t-75 -86.5t-121.5 -34t-122 33.5t-75.5 85.5t-38 114.5t-10.5 121.5q0 62 13 125.5t42 115t76 84t115 32.5zM273 124q34 0 55.5 19.5t34.5 52t18 73t5 82.5t-5.5 82t-18 72t-34.5 51.5
t-55 19.5q-32 0 -54 -19.5t-36 -52t-20 -73.5t-6 -83t5 -82t18.5 -71.5t35.5 -51t57 -19.5zM333 907h158l-161 -170h-131z" />
    <glyph glyph-name="Ocircumflex" unicode="&#xd4;" 
d="M273 706q68 0 114.5 -32.5t75.5 -84t42 -114.5t13 -124q0 -58 -10.5 -121t-38 -115.5t-75 -86.5t-121.5 -34t-122 33.5t-75.5 85.5t-38 114.5t-10.5 121.5q0 62 13 125.5t42 115t76 84t115 32.5zM273 124q34 0 55.5 19.5t34.5 52t18 73t5 82.5t-5.5 82t-18 72t-34.5 51.5
t-55 19.5q-32 0 -54 -19.5t-36 -52t-20 -73.5t-6 -83t5 -82t18.5 -71.5t35.5 -51t57 -19.5zM324 738l-50 46l-50 -46h-156l206 188l209 -188h-159z" />
    <glyph glyph-name="Otilde" unicode="&#xd5;" 
d="M273 706q68 0 114.5 -32.5t75.5 -84t42 -114.5t13 -124q0 -58 -10.5 -121t-38 -115.5t-75 -86.5t-121.5 -34t-122 33.5t-75.5 85.5t-38 114.5t-10.5 121.5q0 62 13 125.5t42 115t76 84t115 32.5zM273 124q34 0 55.5 19.5t34.5 52t18 73t5 82.5t-5.5 82t-18 72t-34.5 51.5
t-55 19.5q-32 0 -54 -19.5t-36 -52t-20 -73.5t-6 -83t5 -82t18.5 -71.5t35.5 -51t57 -19.5zM455 871q-33 -81 -64.5 -110.5t-62.5 -29.5q-14 0 -27.5 6.5t-25.5 15t-23 15t-21 6.5t-18 -8.5t-15 -30.5h-109q18 41 35.5 68t34.5 43.5t33 23t32 6.5q13 0 25.5 -6t24.5 -13.5
t23.5 -13.5t20.5 -6t16 7t12 27h109z" />
    <glyph glyph-name="Odieresis" unicode="&#xd6;" 
d="M273 706q68 0 114.5 -32.5t75.5 -84t42 -114.5t13 -124q0 -58 -10.5 -121t-38 -115.5t-75 -86.5t-121.5 -34t-122 33.5t-75.5 85.5t-38 114.5t-10.5 121.5q0 62 13 125.5t42 115t76 84t115 32.5zM273 124q34 0 55.5 19.5t34.5 52t18 73t5 82.5t-5.5 82t-18 72t-34.5 51.5
t-55 19.5q-32 0 -54 -19.5t-36 -52t-20 -73.5t-6 -83t5 -82t18.5 -71.5t35.5 -51t57 -19.5zM135 741v115h115v-115h-115zM300 741v115h114v-115h-114z" />
    <glyph glyph-name="multiply" unicode="&#xd7;" horiz-adv-x="528" 
d="M264 341l86 104h151l-162 -197l162 -197h-151l-86 105l-86 -105h-151l162 197l-162 197h150z" />
    <glyph glyph-name="Oslash" unicode="&#xd8;" 
d="M273 706q30 0 59 -8l7 21h104l-25 -72q28 -26 47 -60t31 -73t17 -80.5t5 -82.5q0 -58 -10.5 -121t-38 -115.5t-75 -86.5t-121.5 -34q-21 0 -38.5 2.5t-34.5 8.5l-7 -20h-103l25 73q-25 27 -42 62t-27 73t-14.5 78t-4.5 78q0 62 13 125.5t42 115t76 84t115 32.5zM273 119
q35 0 58 20t36.5 52t19 73.5t5.5 84.5q0 42 -5.5 82.5t-18.5 72.5l-127 -380q15 -5 32 -5zM153 346q0 -35 3.5 -69.5t11.5 -63.5l124 367q-5 1 -9.5 1h-9.5q-33 0 -56 -20t-37 -53t-20.5 -75.5t-6.5 -86.5z" />
    <glyph glyph-name="Ugrave" unicode="&#xd9;" horiz-adv-x="628" 
d="M217 700v-509q0 -23 11.5 -37.5t27.5 -23t34 -11.5t31 -3q11 0 26 3.5t29 12t24 23.5t10 39v506h191v-125h-66v-387q0 -59 -23 -97t-56 -59.5t-70 -29.5t-65 -8q-31 0 -70.5 6.5t-74.5 27.5t-59 61.5t-24 108.5v377h-66v125h190zM398 722h-132l-161 170h158z" />
    <glyph glyph-name="Uacute" unicode="&#xda;" horiz-adv-x="628" 
d="M217 700v-509q0 -23 11.5 -37.5t27.5 -23t34 -11.5t31 -3q11 0 26 3.5t29 12t24 23.5t10 39v506h191v-125h-66v-387q0 -59 -23 -97t-56 -59.5t-70 -29.5t-65 -8q-31 0 -70.5 6.5t-74.5 27.5t-59 61.5t-24 108.5v377h-66v125h190zM363 891h158l-161 -170h-131z" />
    <glyph glyph-name="Ucircumflex" unicode="&#xdb;" horiz-adv-x="628" 
d="M217 700v-509q0 -23 11.5 -37.5t27.5 -23t34 -11.5t31 -3q11 0 26 3.5t29 12t24 23.5t10 39v506h191v-125h-66v-387q0 -59 -23 -97t-56 -59.5t-70 -29.5t-65 -8q-31 0 -70.5 6.5t-74.5 27.5t-59 61.5t-24 108.5v377h-66v125h190zM362 738l-50 46l-50 -46h-156l206 188
l209 -188h-159z" />
    <glyph glyph-name="Udieresis" unicode="&#xdc;" horiz-adv-x="628" 
d="M217 700v-509q0 -23 11.5 -37.5t27.5 -23t34 -11.5t31 -3q11 0 26 3.5t29 12t24 23.5t10 39v506h191v-125h-66v-387q0 -59 -23 -97t-56 -59.5t-70 -29.5t-65 -8q-31 0 -70.5 6.5t-74.5 27.5t-59 61.5t-24 108.5v377h-66v125h190zM176 736v115h115v-115h-115zM341 736v115
h114v-115h-114z" />
    <glyph glyph-name="Yacute" unicode="&#xdd;" horiz-adv-x="573" 
d="M205 700q0 -67 24 -129t57 -119q16 27 31 58t26.5 63t18.5 64t7 63h177v-125h-71q-20 -59 -52 -113.5t-74 -117.5v-219h54v-125h-234v125h55v219q-36 56 -71 115t-55 116h-71v125h178zM361 901h158l-161 -170h-131z" />
    <glyph glyph-name="Thorn" unicode="&#xde;" horiz-adv-x="509" 
d="M223 700v-125h38q55 0 96.5 -20.5t69 -53t41.5 -72t14 -77.5t-13.5 -77t-40.5 -71t-67 -52.5t-93 -20.5h-45v-131h-191v125h66v450h-56v125h181zM223 451v-196h40q23 0 40.5 9.5t29 24t17.5 32t6 33.5t-6 33t-17.5 31.5t-29 23.5t-39.5 9h-41z" />
    <glyph glyph-name="germandbls" unicode="&#xdf;" horiz-adv-x="514" 
d="M246 433h33q49 0 65.5 22t16.5 63q0 9 -2.5 21t-11.5 23t-27 18.5t-49 7.5q-21 0 -32.5 -12t-17 -31.5t-6.5 -43t-1 -46.5v-455h-187v122h68v374q0 58 13 98t36.5 65t56 36t71.5 11q63 0 103.5 -19t64.5 -48t33.5 -65t9.5 -70q0 -29 -14.5 -62t-33.5 -56q16 -17 26 -38
t16 -44.5t8 -47t2 -45.5q0 -41 -13.5 -79.5t-40.5 -69.5t-67 -49.5t-92 -18.5q-11 0 -15.5 1l-22.5 5v126q19 -5 25 -8.5t15 -3.5q20 0 36.5 8.5t28 22.5t17.5 32t6 37q0 17 -2.5 35t-9.5 33t-20.5 25t-35.5 10q-5 0 -17.5 -1t-32.5 -5v122z" />
    <glyph glyph-name="agrave" unicode="&#xe0;" horiz-adv-x="503" 
d="M74 468q26 22 62.5 30t86.5 8q94 0 148 -38t54 -118v-197q2 -21 11 -24.5t35 -3.5v-125h-80q-24 0 -49 19q-23 -13 -55.5 -19t-67.5 -6q-50 0 -86.5 9.5t-60 30.5t-34.5 55t-11 84q0 49 16.5 81.5t43.5 51.5t62 27t72 8q26 0 45 -2t38 -10v8q0 38 -17 52.5t-51 14.5
q-5 0 -15.5 -0.5t-24.5 -4.5v-45h-122v114zM303 170q0 33 -15.5 49.5t-64.5 16.5q-40 0 -57 -19.5t-17 -42.5q0 -41 20 -54.5t51 -13.5q29 0 45.5 4t25 11.5t10.5 19.5t2 29zM324 530h-132l-161 170h158z" />
    <glyph glyph-name="aacute" unicode="&#xe1;" horiz-adv-x="503" 
d="M74 468q26 22 62.5 30t86.5 8q94 0 148 -38t54 -118v-197q2 -21 11 -24.5t35 -3.5v-125h-80q-24 0 -49 19q-23 -13 -55.5 -19t-67.5 -6q-50 0 -86.5 9.5t-60 30.5t-34.5 55t-11 84q0 49 16.5 81.5t43.5 51.5t62 27t72 8q26 0 45 -2t38 -10v8q0 38 -17 52.5t-51 14.5
q-5 0 -15.5 -0.5t-24.5 -4.5v-45h-122v114zM303 170q0 33 -15.5 49.5t-64.5 16.5q-40 0 -57 -19.5t-17 -42.5q0 -41 20 -54.5t51 -13.5q29 0 45.5 4t25 11.5t10.5 19.5t2 29zM282 701h158l-161 -170h-131z" />
    <glyph glyph-name="acircumflex" unicode="&#xe2;" horiz-adv-x="503" 
d="M74 468q26 22 62.5 30t86.5 8q94 0 148 -38t54 -118v-197q2 -21 11 -24.5t35 -3.5v-125h-80q-24 0 -49 19q-23 -13 -55.5 -19t-67.5 -6q-50 0 -86.5 9.5t-60 30.5t-34.5 55t-11 84q0 49 16.5 81.5t43.5 51.5t62 27t72 8q26 0 45 -2t38 -10v8q0 38 -17 52.5t-51 14.5
q-5 0 -15.5 -0.5t-24.5 -4.5v-45h-122v114zM303 170q0 33 -15.5 49.5t-64.5 16.5q-40 0 -57 -19.5t-17 -42.5q0 -41 20 -54.5t51 -13.5q29 0 45.5 4t25 11.5t10.5 19.5t2 29zM288 519l-47 43l-47 -43h-146l193 176l196 -176h-149z" />
    <glyph glyph-name="atilde" unicode="&#xe3;" horiz-adv-x="503" 
d="M74 468q26 22 62.5 30t86.5 8q94 0 148 -38t54 -118v-197q2 -21 11 -24.5t35 -3.5v-125h-80q-24 0 -49 19q-23 -13 -55.5 -19t-67.5 -6q-50 0 -86.5 9.5t-60 30.5t-34.5 55t-11 84q0 49 16.5 81.5t43.5 51.5t62 27t72 8q26 0 45 -2t38 -10v8q0 38 -17 52.5t-51 14.5
q-5 0 -15.5 -0.5t-24.5 -4.5v-45h-122v114zM303 170q0 33 -15.5 49.5t-64.5 16.5q-40 0 -57 -19.5t-17 -42.5q0 -41 20 -54.5t51 -13.5q29 0 45.5 4t25 11.5t10.5 19.5t2 29zM428 654q-33 -81 -64.5 -110.5t-62.5 -29.5q-14 0 -27.5 6.5t-25.5 15t-23 15t-21 6.5t-18 -8.5
t-15 -30.5h-109q18 41 35.5 68t34.5 43.5t33 23t32 6.5q13 0 25.5 -6t24.5 -13.5t23.5 -13.5t20.5 -6t16 7t12 27h109z" />
    <glyph glyph-name="adieresis" unicode="&#xe4;" horiz-adv-x="503" 
d="M74 468q26 22 62.5 30t86.5 8q94 0 148 -38t54 -118v-197q2 -21 11 -24.5t35 -3.5v-125h-80q-24 0 -49 19q-23 -13 -55.5 -19t-67.5 -6q-50 0 -86.5 9.5t-60 30.5t-34.5 55t-11 84q0 49 16.5 81.5t43.5 51.5t62 27t72 8q26 0 45 -2t38 -10v8q0 38 -17 52.5t-51 14.5
q-5 0 -15.5 -0.5t-24.5 -4.5v-45h-122v114zM303 170q0 33 -15.5 49.5t-64.5 16.5q-40 0 -57 -19.5t-17 -42.5q0 -41 20 -54.5t51 -13.5q29 0 45.5 4t25 11.5t10.5 19.5t2 29zM98 534v115h115v-115h-115zM263 534v115h114v-115h-114z" />
    <glyph glyph-name="aring" unicode="&#xe5;" horiz-adv-x="503" 
d="M74 468q26 22 62.5 30t86.5 8q94 0 148 -38t54 -118v-197q2 -21 11 -24.5t35 -3.5v-125h-80q-24 0 -49 19q-23 -13 -55.5 -19t-67.5 -6q-50 0 -86.5 9.5t-60 30.5t-34.5 55t-11 84q0 49 16.5 81.5t43.5 51.5t62 27t72 8q26 0 45 -2t38 -10v8q0 38 -17 52.5t-51 14.5
q-5 0 -15.5 -0.5t-24.5 -4.5v-45h-122v114zM303 170q0 33 -15.5 49.5t-64.5 16.5q-40 0 -57 -19.5t-17 -42.5q0 -41 20 -54.5t51 -13.5q29 0 45.5 4t25 11.5t10.5 19.5t2 29zM125 640q0 25 10 48t26.5 39.5t39 26.5t47.5 10t47.5 -10t39.5 -26.5t26.5 -39.5t9.5 -48
t-9.5 -47.5t-26.5 -39t-39.5 -26.5t-47.5 -10t-47.5 10t-39 26.5t-26.5 39t-10 47.5zM227 640q0 -9 6 -15t15 -6q10 0 16.5 6t6.5 15q0 10 -6.5 16.5t-16.5 6.5q-9 0 -15 -6.5t-6 -16.5z" />
    <glyph glyph-name="ae" unicode="&#xe6;" horiz-adv-x="738" 
d="M525 101q7 0 17.5 2.5t19.5 7.5v47h122v-94q-6 -9 -22.5 -21t-39 -23t-48 -18.5t-49.5 -7.5q-18 0 -39.5 0.5t-43 5t-42.5 13.5t-38 26q-28 -26 -67.5 -35.5t-75.5 -9.5q-50 0 -86.5 9.5t-60 30.5t-34.5 55t-11 84q0 49 16.5 81.5t43.5 51.5t62 27t72 8q26 0 45 -2
t38 -10v8q-2 10 -6 19.5t-13.5 16.5t-25 11t-40.5 4v-30h-149v130q31 8 71.5 13t81.5 5q45 0 79.5 -7t59.5 -23q26 19 63 24.5t85 5.5q96 0 148.5 -41t52.5 -133q0 -50 -9 -80t-32 -47t-62 -22.5t-100 -5.5q-20 0 -37.5 0.5t-41.5 4.5q5 -41 27.5 -61t68.5 -20zM509 392
q-25 0 -41 -3t-25 -9.5t-13 -18t-5 -28.5v-45q22 -5 39 -5.5t43 -0.5q29 0 45.5 2t24.5 7.5t9.5 15t1.5 24.5q0 38 -24 49.5t-55 11.5zM303 170q0 31 -16.5 41.5t-65.5 10.5q-40 0 -56 -13t-16 -35q0 -20 5 -32t14.5 -18.5t22.5 -8.5t28 -2q42 0 63 12.5t21 44.5z" />
    <glyph glyph-name="ccedilla" unicode="&#xe7;" horiz-adv-x="463" 
d="M181 4q-76 20 -115 84t-39 167q0 120 57.5 185t166.5 66q15 0 37 -3t46.5 -12t49.5 -25t48 -42v-118h-122v66q-16 7 -33 10t-25 5q-49 -2 -77 -32.5t-28 -99.5q0 -42 8 -69.5t23 -44t36 -23t46 -6.5q6 0 22 4t32 12v68h122v-121q-20 -26 -58.5 -44t-75.5 -25
q14 -11 28.5 -27t14.5 -34q0 -24 -18 -45t-45 -38t-57 -29.5t-54 -19.5v106q10 3 20.5 6.5t10.5 10.5q0 8 -21 21v47z" />
    <glyph glyph-name="egrave" unicode="&#xe8;" horiz-adv-x="460" 
d="M247 99q7 0 18 2.5t19 5.5v51h122v-94q-6 -9 -22.5 -21t-38.5 -23t-47.5 -18.5t-50.5 -7.5q-47 0 -87.5 10t-70 33.5t-46 62t-16.5 94.5v136q0 49 13.5 83t39.5 54.5t64 29.5t88 9q96 0 148.5 -40.5t52.5 -132.5q0 -50 -9 -80.5t-32 -47t-62 -22.5t-100 -6
q-17 0 -35.5 1.5t-47.5 4.5q2 -45 24.5 -64.5t75.5 -19.5zM148 328q-1 -6 -1 -12.5v-30.5q12 -2 30 -3t47 -1q27 0 44 1t27 6t13.5 15.5t3.5 28.5q0 19 -6.5 31t-17.5 19.5t-25.5 10.5t-30.5 3q-25 0 -41 -4.5t-25 -13t-13 -21t-5 -29.5zM327 532h-132l-161 170h158z" />
    <glyph glyph-name="eacute" unicode="&#xe9;" horiz-adv-x="462" 
d="M247 99q7 0 18 2.5t19 5.5v51h122v-94q-6 -9 -22.5 -21t-38.5 -23t-47.5 -18.5t-50.5 -7.5q-47 0 -87.5 10t-70 33.5t-46 62t-16.5 94.5v136q0 49 13.5 83t39.5 54.5t64 29.5t88 9q96 0 148.5 -40.5t52.5 -132.5q0 -50 -9 -80.5t-32 -47t-62 -22.5t-100 -6
q-17 0 -35.5 1.5t-47.5 4.5q2 -45 24.5 -64.5t75.5 -19.5zM148 328q-1 -6 -1 -12.5v-30.5q12 -2 30 -3t47 -1q27 0 44 1t27 6t13.5 15.5t3.5 28.5q0 19 -6.5 31t-17.5 19.5t-25.5 10.5t-30.5 3q-25 0 -41 -4.5t-25 -13t-13 -21t-5 -29.5zM291 701h158l-161 -170h-131z" />
    <glyph glyph-name="ecircumflex" unicode="&#xea;" horiz-adv-x="460" 
d="M247 99q7 0 18 2.5t19 5.5v51h122v-94q-6 -9 -22.5 -21t-38.5 -23t-47.5 -18.5t-50.5 -7.5q-47 0 -87.5 10t-70 33.5t-46 62t-16.5 94.5v136q0 49 13.5 83t39.5 54.5t64 29.5t88 9q96 0 148.5 -40.5t52.5 -132.5q0 -50 -9 -80.5t-32 -47t-62 -22.5t-100 -6
q-17 0 -35.5 1.5t-47.5 4.5q2 -45 24.5 -64.5t75.5 -19.5zM148 328q-1 -6 -1 -12.5v-30.5q12 -2 30 -3t47 -1q27 0 44 1t27 6t13.5 15.5t3.5 28.5q0 19 -6.5 31t-17.5 19.5t-25.5 10.5t-30.5 3q-25 0 -41 -4.5t-25 -13t-13 -21t-5 -29.5zM283 527l-50 46l-50 -46h-156
l206 188l209 -188h-159z" />
    <glyph glyph-name="edieresis" unicode="&#xeb;" horiz-adv-x="460" 
d="M247 99q7 0 18 2.5t19 5.5v51h122v-94q-6 -9 -22.5 -21t-38.5 -23t-47.5 -18.5t-50.5 -7.5q-47 0 -87.5 10t-70 33.5t-46 62t-16.5 94.5v136q0 49 13.5 83t39.5 54.5t64 29.5t88 9q96 0 148.5 -40.5t52.5 -132.5q0 -50 -9 -80.5t-32 -47t-62 -22.5t-100 -6
q-17 0 -35.5 1.5t-47.5 4.5q2 -45 24.5 -64.5t75.5 -19.5zM148 328q-1 -6 -1 -12.5v-30.5q12 -2 30 -3t47 -1q27 0 44 1t27 6t13.5 15.5t3.5 28.5q0 19 -6.5 31t-17.5 19.5t-25.5 10.5t-30.5 3q-25 0 -41 -4.5t-25 -13t-13 -21t-5 -29.5zM86 548v115h115v-115h-115zM251 548
v115h114v-115h-114z" />
    <glyph glyph-name="igrave" unicode="&#xec;" horiz-adv-x="373" 
d="M282 500v-378h64v-122h-187v378h-65v122h188zM283 531h-132l-161 170h158z" />
    <glyph glyph-name="iacute" unicode="&#xed;" horiz-adv-x="351" 
d="M215 500v-378h64v-122h-187v378h-65v122h188zM205 700h158l-161 -170h-131z" />
    <glyph glyph-name="icircumflex" unicode="&#xee;" horiz-adv-x="321" 
d="M228 500v-378h64v-122h-187v378h-65v122h188zM201 524l-41 44l-40 -44h-127l167 178l170 -178h-129z" />
    <glyph glyph-name="idieresis" unicode="&#xef;" horiz-adv-x="343" 
d="M25 570v115h114v-115h-114zM163 570v115h115v-115h-115zM246 500v-378h64v-122h-187v378h-65v122h188z" />
    <glyph glyph-name="eth" unicode="&#xf0;" horiz-adv-x="499" 
d="M193 476l-41 57l91 60q-11 8 -21.5 13.5t-20.5 5.5q-23 0 -45 -14t-45 -35l-68 72q38 33 76.5 52t78.5 19q32 0 64 -13.5t65 -44.5l69 48l45 -70l-63 -39q18 -22 35 -60t30 -82t21 -88t8 -78q0 -55 -13 -106.5t-41.5 -91t-73.5 -63.5t-109 -24q-52 0 -91 19.5t-65 51
t-39 72.5t-13 83q0 48 18.5 89.5t49 72t71 47.5t85.5 17q22 0 44.5 -7t44.5 -15q-1 7 -7 23.5t-13.5 34.5t-15.5 34t-13 21zM352 280q0 15 -10 24.5t-24.5 15.5t-31 8t-29.5 2q-19 0 -39 -6.5t-36 -21t-26 -37.5t-10 -56q0 -20 7 -38t19 -32t28 -22t34 -8q32 0 54.5 15.5
t36.5 40.5t20.5 55t6.5 60z" />
    <glyph glyph-name="ntilde" unicode="&#xf1;" horiz-adv-x="559" 
d="M219 500v-20q21 15 42 20.5t32 5.5q54 0 89.5 -20.5t56 -54.5t29 -78t8.5 -91v-140h56v-122h-178v262q0 16 -1.5 37.5t-8.5 41.5t-20.5 34t-37.5 14q-32 0 -49.5 -26.5t-17.5 -64.5v-298h-187v122h65v256h-65v122h187zM469 672q-33 -81 -64.5 -110.5t-62.5 -29.5
q-14 0 -27.5 6.5t-25.5 15t-23 15t-21 6.5t-18 -8.5t-15 -30.5h-109q18 41 35.5 68t34.5 43.5t33 23t32 6.5q13 0 25.5 -6t24.5 -13.5t23.5 -13.5t20.5 -6t16 7t12 27h109z" />
    <glyph glyph-name="ograve" unicode="&#xf2;" horiz-adv-x="491" 
d="M246 506q58 0 99 -22.5t67.5 -59t39 -82.5t12.5 -93q0 -48 -12 -94t-38.5 -81.5t-68 -57.5t-99.5 -22q-56 0 -97 22t-68 58.5t-40.5 83t-13.5 94.5q0 47 13 92.5t40 81t68 58t98 22.5zM343 249q0 16 -4 39.5t-14.5 45.5t-29.5 37.5t-49 15.5t-49 -14t-29.5 -35t-14.5 -44
t-4 -41q0 -26 6 -51.5t18.5 -45t30.5 -31.5t42 -12q26 0 44.5 11.5t30 31t17 43.5t5.5 50zM328 530h-132l-161 170h158z" />
    <glyph glyph-name="oacute" unicode="&#xf3;" horiz-adv-x="491" 
d="M246 506q58 0 99 -22.5t67.5 -59t39 -82.5t12.5 -93q0 -48 -12 -94t-38.5 -81.5t-68 -57.5t-99.5 -22q-56 0 -97 22t-68 58.5t-40.5 83t-13.5 94.5q0 47 13 92.5t40 81t68 58t98 22.5zM343 249q0 16 -4 39.5t-14.5 45.5t-29.5 37.5t-49 15.5t-49 -14t-29.5 -35t-14.5 -44
t-4 -41q0 -26 6 -51.5t18.5 -45t30.5 -31.5t42 -12q26 0 44.5 11.5t30 31t17 43.5t5.5 50zM305 699h158l-161 -170h-131z" />
    <glyph glyph-name="ocircumflex" unicode="&#xf4;" horiz-adv-x="491" 
d="M246 506q58 0 99 -22.5t67.5 -59t39 -82.5t12.5 -93q0 -48 -12 -94t-38.5 -81.5t-68 -57.5t-99.5 -22q-56 0 -97 22t-68 58.5t-40.5 83t-13.5 94.5q0 47 13 92.5t40 81t68 58t98 22.5zM343 249q0 16 -4 39.5t-14.5 45.5t-29.5 37.5t-49 15.5t-49 -14t-29.5 -35t-14.5 -44
t-4 -41q0 -26 6 -51.5t18.5 -45t30.5 -31.5t42 -12q26 0 44.5 11.5t30 31t17 43.5t5.5 50zM297 529l-50 46l-50 -46h-156l206 188l209 -188h-159z" />
    <glyph glyph-name="otilde" unicode="&#xf5;" horiz-adv-x="491" 
d="M246 506q58 0 99 -22.5t67.5 -59t39 -82.5t12.5 -93q0 -48 -12 -94t-38.5 -81.5t-68 -57.5t-99.5 -22q-56 0 -97 22t-68 58.5t-40.5 83t-13.5 94.5q0 47 13 92.5t40 81t68 58t98 22.5zM343 249q0 16 -4 39.5t-14.5 45.5t-29.5 37.5t-49 15.5t-49 -14t-29.5 -35t-14.5 -44
t-4 -41q0 -26 6 -51.5t18.5 -45t30.5 -31.5t42 -12q26 0 44.5 11.5t30 31t17 43.5t5.5 50zM436 665q-33 -81 -64.5 -110.5t-62.5 -29.5q-14 0 -27.5 6.5t-25.5 15t-23 15t-21 6.5t-18 -8.5t-15 -30.5h-109q18 41 35.5 68t34.5 43.5t33 23t32 6.5q13 0 25.5 -6t24.5 -13.5
t23.5 -13.5t20.5 -6t16 7t12 27h109z" />
    <glyph glyph-name="odieresis" unicode="&#xf6;" horiz-adv-x="491" 
d="M246 506q58 0 99 -22.5t67.5 -59t39 -82.5t12.5 -93q0 -48 -12 -94t-38.5 -81.5t-68 -57.5t-99.5 -22q-56 0 -97 22t-68 58.5t-40.5 83t-13.5 94.5q0 47 13 92.5t40 81t68 58t98 22.5zM343 249q0 16 -4 39.5t-14.5 45.5t-29.5 37.5t-49 15.5t-49 -14t-29.5 -35t-14.5 -44
t-4 -41q0 -26 6 -51.5t18.5 -45t30.5 -31.5t42 -12q26 0 44.5 11.5t30 31t17 43.5t5.5 50zM105 542v115h115v-115h-115zM270 542v115h114v-115h-114z" />
    <glyph glyph-name="divide" unicode="&#xf7;" horiz-adv-x="490" 
d="M458 357v-122h-426v122h426zM166 59v141h142v-141h-142zM166 391v142h142v-142h-142z" />
    <glyph glyph-name="oslash" unicode="&#xf8;" horiz-adv-x="491" 
d="M246 506q12 0 23.5 -1.5t22.5 -3.5l12 34h94l-26 -70q24 -18 41.5 -42.5t28.5 -52.5t16.5 -59t5.5 -62q0 -48 -12.5 -94t-39 -81.5t-68 -57.5t-100.5 -22q-14 0 -25 1t-23 4l-15 -37h-93l28 75q-46 37 -67.5 94.5t-21.5 120.5q0 47 11.5 92.5t37.5 81.5t68 58t102 22z
M343 249q0 17 -4.5 41.5t-15.5 47.5q-23 -59 -42 -111.5t-43 -113.5q29 0 49 11.5t32.5 31t18 43.5t5.5 50zM149 253q0 -22 4 -44.5t12 -39.5l81 218q-30 0 -49 -14t-29.5 -35t-14.5 -44t-4 -41z" />
    <glyph glyph-name="ugrave" unicode="&#xf9;" horiz-adv-x="578" 
d="M358 0v28q-20 -16 -46 -25t-47 -9q-46 0 -78.5 20.5t-53.5 54t-31 77.5t-10 91v141h-65v122h186v-272q0 -14 1.5 -33.5t8 -37.5t19.5 -31t37 -13t39 11t24 29t12.5 41.5t3.5 48.5v257h188v-122h-65v-256h65v-122h-188zM379 530h-132l-161 170h158z" />
    <glyph glyph-name="uacute" unicode="&#xfa;" horiz-adv-x="578" 
d="M358 0v28q-20 -16 -46 -25t-47 -9q-46 0 -78.5 20.5t-53.5 54t-31 77.5t-10 91v141h-65v122h186v-272q0 -14 1.5 -33.5t8 -37.5t19.5 -31t37 -13t39 11t24 29t12.5 41.5t3.5 48.5v257h188v-122h-65v-256h65v-122h-188zM351 699h158l-161 -170h-131z" />
    <glyph glyph-name="ucircumflex" unicode="&#xfb;" horiz-adv-x="578" 
d="M358 0v28q-20 -16 -46 -25t-47 -9q-46 0 -78.5 20.5t-53.5 54t-31 77.5t-10 91v141h-65v122h186v-272q0 -14 1.5 -33.5t8 -37.5t19.5 -31t37 -13t39 11t24 29t12.5 41.5t3.5 48.5v257h188v-122h-65v-256h65v-122h-188zM342 539l-50 46l-50 -46h-156l206 188l209 -188
h-159z" />
    <glyph glyph-name="udieresis" unicode="&#xfc;" horiz-adv-x="578" 
d="M358 0v28q-20 -16 -46 -25t-47 -9q-46 0 -78.5 20.5t-53.5 54t-31 77.5t-10 91v141h-65v122h186v-272q0 -14 1.5 -33.5t8 -37.5t19.5 -31t37 -13t39 11t24 29t12.5 41.5t3.5 48.5v257h188v-122h-65v-256h65v-122h-188zM153 546v115h115v-115h-115zM318 546v115h114v-115
h-114z" />
    <glyph glyph-name="yacute" unicode="&#xfd;" horiz-adv-x="569" 
d="M542 500v-122h-65v-365q0 -26 -3 -53.5t-9 -54t-15.5 -49t-21.5 -38.5q-27 -35 -70.5 -54.5t-107.5 -19.5q-25 0 -50 4t-49 11v158h122v-63q26 0 42 14.5t25 36.5t12 48t3 49v18q-19 -14 -42.5 -20.5t-47.5 -6.5q-51 0 -84.5 21.5t-53 57t-27.5 80.5t-8 92v133h-65v123
h186v-269q0 -17 1.5 -37.5t7.5 -39t19.5 -31t37.5 -12.5q32 0 54 31.5t22 85.5v272h187zM349 698h158l-161 -170h-131z" />
    <glyph glyph-name="thorn" unicode="&#xfe;" horiz-adv-x="530" 
d="M299 505q58 0 97 -20.5t63 -55t34 -78.5t10 -91q0 -48 -10 -95.5t-34 -86t-63.5 -62t-98.5 -23.5q-46 0 -78 23v-216h-187v122h64v656h-64v122h187v-215q34 18 80 20zM381 260q0 16 -1.5 37.5t-9.5 41t-24.5 33.5t-46.5 14q-27 0 -44 -10t-27 -25.5t-14.5 -34t-4.5 -35.5
v-17q0 -26 5 -53.5t15.5 -49.5t27 -36t40.5 -14q26 0 42.5 13.5t25.5 35.5t12.5 48t3.5 52z" />
    <glyph glyph-name="ydieresis" unicode="&#xff;" horiz-adv-x="569" 
d="M542 500v-122h-65v-365q0 -26 -3 -53.5t-9 -54t-15.5 -49t-21.5 -38.5q-27 -35 -70.5 -54.5t-107.5 -19.5q-25 0 -50 4t-49 11v158h122v-63q26 0 42 14.5t25 36.5t12 48t3 49v18q-19 -14 -42.5 -20.5t-47.5 -6.5q-51 0 -84.5 21.5t-53 57t-27.5 80.5t-8 92v133h-65v123
h186v-269q0 -17 1.5 -37.5t7.5 -39t19.5 -31t37.5 -12.5q32 0 54 31.5t22 85.5v272h187zM157 536v115h115v-115h-115zM322 536v115h114v-115h-114z" />
    <glyph glyph-name="dotlessi" unicode="&#x131;" horiz-adv-x="306" 
d="M215 500v-378h64v-122h-187v378h-65v122h188z" />
    <glyph glyph-name="OE" unicode="&#x152;" horiz-adv-x="717" 
d="M273 706q15 0 31 -1.5t27 -4.5h354v-178h-125v53h-164v-140h174v-125h-174v-185h164v58h125v-183h-352q-24 -6 -60 -6q-74 0 -122 33.5t-75.5 85.5t-38 114.5t-10.5 121.5q0 62 13 125.5t42 115t76 84t115 32.5zM153 346q0 -42 5 -83t18.5 -73.5t36.5 -52.5t58 -20v464
q-33 -1 -55.5 -21t-36.5 -53t-20 -75t-6 -86z" />
    <glyph glyph-name="oe" unicode="&#x153;" horiz-adv-x="777" 
d="M246 506q42 0 76 -14.5t60 -37.5q26 30 67.5 41t99.5 11q96 0 148.5 -42t52.5 -134q0 -50 -9 -80t-32 -46t-62 -21.5t-100 -5.5q-17 0 -35.5 1.5t-46.5 4.5q2 -40 24.5 -62t74.5 -22q7 0 18 2.5t19 5.5v51h122v-94q-6 -9 -22.5 -21t-38.5 -23t-47.5 -18.5t-50.5 -7.5
q-43 0 -76.5 7.5t-58.5 21.5q-10 6 -19 13t-17 15q-26 -26 -63.5 -41.5t-85.5 -15.5q-56 0 -97 22t-67.5 58.5t-39.5 83t-13 94.5q0 47 11.5 92.5t37.5 81.5t67.5 58t102.5 22zM343 249q0 16 -4 40t-14.5 46t-29.5 37.5t-49 15.5t-49.5 -14.5t-30 -35t-14.5 -44t-4 -41.5
q0 -26 6 -51.5t18 -45.5t30 -32t42 -12q27 0 45.5 12t30.5 31t17.5 43.5t5.5 50.5zM465 331q-1 -5 -1 -13v-33q12 -2 31 -5t54 -3q24 0 39.5 1.5t24.5 7t12.5 15.5t3.5 28q0 38 -24 53t-56 15q-25 0 -40.5 -4t-24.5 -12t-13 -20.5t-6 -29.5z" />
    <glyph glyph-name="Scaron" unicode="&#x160;" horiz-adv-x="458" 
d="M276 580h-61q-32 0 -48 -19.5t-16 -48.5q0 -23 28.5 -43.5t70.5 -43.5q44 -23 80.5 -44t63 -46t41 -57t14.5 -78q0 -78 -40 -127t-129 -67q-7 -2 -23 -3t-34 -1.5t-34.5 -1t-24.5 -0.5h-134v179h125v-56h66q49 3 74 20.5t25 54.5q0 22 -13.5 40.5t-34 34.5t-45 29.5
t-45.5 24.5q-5 2 -12 6.5t-12 6.5q-27 13 -51 27t-42.5 33.5t-29.5 46.5t-11 67t13.5 74t37.5 59t56 39t68 14h202v-173h-125v53zM439 908l-209 -188l-206 188h156l50 -47l50 47h159z" />
    <glyph glyph-name="scaron" unicode="&#x161;" horiz-adv-x="436" 
d="M161 114h51q9 0 19.5 0.5t18.5 3.5t13.5 8.5t5.5 16.5q0 6 -9 14t-21 15t-24.5 13.5t-19.5 9.5q-39 18 -70 35.5t-53 35.5t-33.5 38.5t-11.5 45.5q0 29 14 56t38.5 48t58.5 33.5t75 12.5h166v-157h-122v51h-38q-9 0 -19.5 -2.5t-20 -7t-15.5 -11.5t-6 -17
q0 -11 24.5 -25.5t59.5 -28.5q29 -12 58 -29t52 -36.5t37.5 -42t14.5 -46.5q0 -42 -13 -70.5t-34.5 -46t-49 -24.5t-55.5 -7h-213v157h122v-43zM432 711l-209 -188l-206 188h156l50 -47l50 47h159z" />
    <glyph glyph-name="Ydieresis" unicode="&#x178;" horiz-adv-x="573" 
d="M205 700q0 -67 24 -129t57 -119q16 27 31 58t26.5 63t18.5 64t7 63h177v-125h-71q-20 -59 -52 -113.5t-74 -117.5v-219h54v-125h-234v125h55v219q-36 56 -71 115t-55 116h-71v125h178zM148 739v115h115v-115h-115zM313 739v115h114v-115h-114z" />
    <glyph glyph-name="Zcaron" unicode="&#x17d;" horiz-adv-x="533" 
d="M473 700q0 -51 -14 -98t-36.5 -91.5t-51.5 -87.5t-59 -85q-38 -53 -73.5 -107.5t-56.5 -105.5h195v59h125v-184h-476q0 49 14 96t37 92t51.5 88t57.5 84q36 52 73 108t58 107h-161v-48h-125v173h442zM461 915l-209 -188l-206 188h156l50 -47l50 47h159z" />
    <glyph glyph-name="zcaron" unicode="&#x17e;" horiz-adv-x="444" 
d="M405 500v-29q0 -41 -11.5 -75.5t-30 -65t-42 -57.5t-48.5 -52q-23 -23 -45.5 -47.5t-39.5 -51.5h104v49h122v-171h-380q0 50 11 88t29.5 69t41.5 56t47 49q27 27 52 54.5t42 61.5h-100v-35h-122v157h370zM426 716l-209 -188l-206 188h156l50 -47l50 47h159z" />
    <glyph glyph-name="florin" unicode="&#x192;" horiz-adv-x="528" 
d="M188 500q7 40 22 77t40.5 65.5t63.5 46t92 17.5q31 0 59 -8.5t53 -23.5l-15 -140h-122l5 59q-17 -2 -30 -11.5t-22.5 -23.5t-15.5 -29.5t-9 -28.5h100l-13 -122h-103q-17 -96 -34 -191.5t-34 -191.5q-11 -59 -46 -87.5t-77 -28.5q-19 0 -49 6.5t-55 18.5l32 118
q17 -6 33 -12t22 -6q16 0 25 41q15 86 30.5 166t30.5 167h-64l13 122h68z" />
    <glyph glyph-name="circumflex" unicode="&#x2c6;" horiz-adv-x="427" 
d="M262 527l-50 46l-50 -46h-156l206 188l209 -188h-159z" />
    <glyph glyph-name="tilde" unicode="&#x2dc;" horiz-adv-x="414" 
d="M388 700q-33 -81 -64.5 -110.5t-62.5 -29.5q-14 0 -27.5 6.5t-25.5 15t-23 15t-21 6.5t-18 -8.5t-15 -30.5h-109q18 41 35.5 68t34.5 43.5t33 23t32 6.5q13 0 25.5 -6t24.5 -13.5t23.5 -13.5t20.5 -6t16 7t12 27h109z" />
    <glyph glyph-name="endash" unicode="&#x2013;" horiz-adv-x="553" 
d="M529 357v-122h-505v122h505z" />
    <glyph glyph-name="emdash" unicode="&#x2014;" horiz-adv-x="663" 
d="M639 357v-122h-615v122h615z" />
    <glyph glyph-name="quoteleft" unicode="&#x2018;" horiz-adv-x="201" 
d="M171 563v-157h-149v104q0 85 38 133t111 57v-86q-19 -5 -29 -17t-12 -34h41z" />
    <glyph glyph-name="quoteright" unicode="&#x2019;" horiz-adv-x="201" 
d="M25 543v157h149v-104q0 -85 -38 -133t-111 -57v87q18 5 28.5 16t13.5 34h-42z" />
    <glyph glyph-name="quotesinglbase" unicode="&#x201a;" horiz-adv-x="201" 
d="M22 -19v156h149v-103q0 -85 -38 -133t-111 -57v87q18 5 28.5 16t13.5 34h-42z" />
    <glyph glyph-name="quotedblleft" unicode="&#x201c;" horiz-adv-x="382" 
d="M174 563v-157h-149v104q0 85 38 133t111 57v-86q-37 -10 -41 -51h41zM350 563v-157h-149v104q0 85 38 133t111 57v-86q-19 -5 -29.5 -17t-12.5 -34h42z" />
    <glyph glyph-name="quotedblright" unicode="&#x201d;" horiz-adv-x="369" 
d="M200 543v157h149v-104q0 -85 -38 -133t-111 -57v87q18 5 28.5 16t13.5 34h-42zM26 543v157h149v-104q0 -172 -149 -190v87q18 5 28.5 16t13.5 34h-42z" />
    <glyph glyph-name="quotedblbase" unicode="&#x201e;" horiz-adv-x="383" 
d="M206 -19v156h149v-103q0 -85 -38 -133t-111 -57v87q18 5 28.5 16t13.5 34h-42zM25 -19v156h149v-103q0 -172 -149 -190v87q18 5 28.5 16t13.5 34h-42z" />
    <glyph glyph-name="dagger" unicode="&#x2020;" horiz-adv-x="372" 
d="M124 586v114h122v-114h94v-122h-94v-464h-122v464h-92v122h92z" />
    <glyph glyph-name="daggerdbl" unicode="&#x2021;" horiz-adv-x="372" 
d="M124 601v99h122v-99h94v-122h-94v-19h94v-122h-94v-338h-122v338h-92v122h92v19h-92v122h92z" />
    <glyph glyph-name="bullet" unicode="&#x2022;" horiz-adv-x="374" 
d="M32 300q0 32 12.5 60t33.5 49t49 33.5t60 12.5t60 -12.5t49 -33.5t33.5 -49t12.5 -60t-12.5 -60t-33.5 -49t-49 -33t-60 -12t-60 12t-49 33t-33.5 49t-12.5 60z" />
    <glyph glyph-name="ellipsis" unicode="&#x2026;" horiz-adv-x="733" 
d="M32 0v142h141v-142h-141zM296 0v142h141v-142h-141zM559 0v142h142v-142h-142z" />
    <glyph glyph-name="perthousand" unicode="&#x2030;" horiz-adv-x="1100" 
d="M492 700h116l-354 -700h-116zM27 539q0 35 13 65.5t35.5 53t52.5 35.5t65 13q34 0 64.5 -13t53 -35.5t35.5 -53t13 -65.5t-13 -65t-35.5 -52.5t-53 -35.5t-64.5 -13q-35 0 -65 13t-52.5 35.5t-35.5 52.5t-13 65zM135 539q0 -25 16 -41t42 -16q24 0 41.5 16t17.5 41
q0 24 -17.5 41.5t-41.5 17.5q-26 0 -42 -17.5t-16 -41.5zM381 159q0 35 13 65.5t35.5 53t52.5 35.5t65 13t65.5 -13t53 -35.5t35.5 -53t13 -65.5t-13 -65t-35.5 -52t-53 -35t-65.5 -13t-65 13t-52.5 35t-35.5 52t-13 65zM490 159q0 -25 16 -41t41 -16t42 16t17 41t-17 42.5
t-42 17.5t-41 -17.5t-16 -42.5zM740 160q0 35 13 65.5t35.5 53t52.5 35.5t65 13q34 0 64.5 -13t53.5 -35.5t36 -53t13 -65.5t-13 -65t-36 -52.5t-53.5 -35.5t-64.5 -13q-35 0 -65 13t-52.5 35.5t-35.5 52.5t-13 65zM848 160q0 -25 16.5 -41t41.5 -16q24 0 41.5 16t17.5 41
t-17.5 42t-41.5 17q-25 0 -41.5 -17t-16.5 -42z" />
    <glyph glyph-name="guilsinglleft" unicode="&#x2039;" horiz-adv-x="277" 
d="M27 278l218 253v-178l-63 -74q17 -18 32.5 -37t30.5 -36v-182z" />
    <glyph glyph-name="guilsinglright" unicode="&#x203a;" horiz-adv-x="277" 
d="M27 24v182l63 72q-16 17 -32.5 37.5t-30.5 37.5v178l218 -253z" />
    <glyph glyph-name="Euro" unicode="&#x20ac;" horiz-adv-x="706" 
d="M76 454h38q17 52 49 95.5t76 75t97 49t112 17.5q64 0 120 -19t119 -68l-71 -99q-30 24 -55.5 37.5t-46.5 20t-37.5 7.5t-28.5 1q-31 0 -60 -9t-54.5 -25t-46.5 -37.5t-36 -45.5h336l-71 -105h-294q-2 -4 -2 -7.5v-5.5q0 -7 2 -10h279l-72 -104h-175q30 -51 81.5 -80
t113.5 -29q41 0 89.5 15t103.5 57v-137q-56 -28 -107 -41t-99 -13q-57 0 -107.5 16.5t-92 46.5t-72.5 72t-48 93h-116l76 108h20q-2 2 -2 9q0 6 2 10h-96z" />
    <glyph glyph-name="trademark" unicode="&#x2122;" horiz-adv-x="900" 
d="M550 346l-3.5 45.5t-4.5 37t-7 33.5t-10 35v-204h-166v113h53v135h-103v46h-29v-181h49v-113h-211v113h49v181h-28v-46h-112v159h558q8 -38 11.5 -76t16.5 -78q12 35 15.5 74.5t11.5 79.5h228v-113h-53v-181h53v-113h-165v204q-8 -32 -14.5 -67.5t-14.5 -83.5h-124z" />
    </font>
</defs>
</svg>
