<?xml version="1.0" encoding="iso-8859-1"?>
<!-- Generator: Adobe Illustrator 19.0.0, SVG Export Plug-In . SVG Version: 6.00 Build 0)  -->
<svg version="1.1" id="Capa_1" xmlns="http://www.w3.org/2000/svg" xmlns:xlink="http://www.w3.org/1999/xlink" x="0px" y="0px"
	 viewBox="0 0 511.999 511.999" style="enable-background:new 0 0 511.999 511.999;" xml:space="preserve">
<g>
	<path style="fill:#F6A725;" d="M176.262,294.535c0,58.834,50.058,106.024,52.189,108.005c5.461,5.075,14.004,4.763,19.08-0.7
		c5.072-5.459,4.762-13.994-0.691-19.07c-0.734-0.692-43.577-41.463-43.577-88.234L176.262,294.535L176.262,294.535z"/>
	<path style="fill:#F6A725;" d="M237.545,284.322c0,58.834,50.058,106.024,52.189,108.005c5.461,5.075,14.004,4.763,19.08-0.7
		c5.072-5.459,4.762-13.994-0.691-19.071c-0.734-0.692-43.577-41.463-43.577-88.234L237.545,284.322L237.545,284.322z"/>
</g>
<path style="fill:#6D4D42;" d="M7.704,504.505c0,0,68.432-82.733,145.037-82.733s112.352,22.47,227.768-43.92
	c36.77-19.406,117.459,10.504,119.502-18.75c2.043-29.255-38.813-22.105-111.331-22.105s-89.882,50.048-168.528,34.727
	c-55.155-15.32-156.272,7.15-212.448,36.77L7.704,504.505L7.704,504.505z"/>
<path style="fill:#5F433A;" d="M380.51,357.852c-115.416,66.39-151.165,43.92-227.769,43.92S7.704,484.504,7.704,484.504v20
	c0,0,68.433-82.732,145.037-82.732s112.352,22.47,227.769-43.92c36.77-19.406,117.459,10.504,119.502-18.75
	c0.373-5.336-0.689-9.457-3.102-12.635C481.53,362.622,413.426,340.48,380.51,357.852z"/>
<path style="fill:#CE4C48;" d="M130.786,266.72L21.281,344.431c-5.527,3.922-1.936,12.642,4.745,11.507
	c51.445-8.743,111.402-46.543,111.402-46.543l16.839-19.072L130.786,266.72z"/>
<path style="fill:#AD302D;" d="M86.218,298.348l10.517,12.793c4.071,4.952,8.404,9.568,12.962,13.86
	c16.678-8.641,27.73-15.606,27.73-15.606l16.839-19.072l-23.48-23.601L86.218,298.348z"/>
<g>
	<path style="fill:#DD9621;" d="M264.545,284.322h-27.001c0,25.387,9.322,48.602,20.09,66.956
		c8.733-2.729,17.242-6.15,25.406-10.229C273.348,325.487,264.545,305.52,264.545,284.322z"/>
	<path style="fill:#DD9621;" d="M203.263,294.536h-27.002c0,23.833,8.216,45.756,18.131,63.537c4.851,0.479,9.77,0.732,14.752,0.733
		c0.007,0,0.011,0,0.018,0c5.663,0,11.315-0.328,16.933-0.934C214.864,341.584,203.263,318.873,203.263,294.536z"/>
</g>
<path style="fill:#E95552;" d="M119.91,292.089c84.078,102.271,273.061,0.352,211.138-131.663v-32.741
	c-52.384-103.95-186.62-20.462-186.62-20.462c0,26.193,30.237,57.146,30.237,57.146L119.91,292.089z"/>
<g>
	<circle style="fill:#85D0F4;" cx="269.175" cy="22.634" r="15.14"/>
	<circle style="fill:#85D0F4;" cx="159.193" cy="22.634" r="15.14"/>
	<circle style="fill:#85D0F4;" cx="49.201" cy="22.634" r="15.14"/>
	<circle style="fill:#85D0F4;" cx="379.168" cy="22.634" r="15.14"/>
	<circle style="fill:#85D0F4;" cx="489.16" cy="22.634" r="15.14"/>
	<circle style="fill:#85D0F4;" cx="49.201" cy="167.563" r="15.14"/>
	<circle style="fill:#85D0F4;" cx="489.16" cy="167.563" r="15.14"/>
	<circle style="fill:#85D0F4;" cx="435.189" cy="86.282" r="15.14"/>
	<circle style="fill:#85D0F4;" cx="103.172" cy="86.282" r="15.14"/>
	<circle style="fill:#85D0F4;" cx="435.189" cy="236.855" r="15.14"/>
</g>
<path style="fill:#D13834;" d="M193.034,176.588c-10.095,3.625-19.906,8.231-29.423,13.564L119.91,292.089
	c6.202,7.544,12.979,13.969,20.18,19.36c52.205-3.054,109.305-17.838,129.791-64.601c4.357-7.333,6.867-15.893,6.867-25.043
	C276.748,179.083,227.227,164.31,193.034,176.588z"/>
<path style="fill:#E06E6E;" d="M193.034,156.588c-43.957,15.783-82.606,50.006-114.435,83.132
	c-12.234,12.732-23.798,26.119-34.552,40.128c-2.029,2.643-0.487,6.49,2.807,6.987c34.934,5.275,186.664,23.018,223.026-59.986
	c4.357-7.334,6.867-15.893,6.867-25.043C276.748,159.083,227.227,144.311,193.034,156.588z"/>
<path style="fill:#F6A725;" d="M355.13,138.633l-24.082-10.947c0,0-12.277,4.911-12.277,16.37c0,11.459,12.277,16.37,12.277,16.37
	l24.082-10.947C359.787,147.363,359.787,140.749,355.13,138.633z"/>
<circle style="fill:#1D1D1B;" cx="284.766" cy="131.313" r="12.691"/>
<path d="M269.179,45.28c12.483,0,22.639-10.156,22.639-22.64S281.663,0,269.179,0s-22.64,10.156-22.64,22.639
	S256.695,45.28,269.179,45.28z M269.179,15c4.212,0,7.639,3.427,7.639,7.639s-3.427,7.639-7.639,7.639s-7.64-3.427-7.64-7.639
	S264.966,15,269.179,15z"/>
<path d="M159.19,45.28c12.483,0,22.639-10.156,22.639-22.64S171.674,0,159.19,0s-22.639,10.156-22.639,22.639
	S146.706,45.28,159.19,45.28z M159.19,15c4.212,0,7.639,3.427,7.639,7.639s-3.427,7.639-7.639,7.639
	c-4.212,0-7.639-3.427-7.639-7.639S154.977,15,159.19,15z"/>
<path d="M49.201,45.28c12.483,0,22.639-10.156,22.639-22.64S61.685,0,49.201,0S26.562,10.156,26.562,22.639
	S36.718,45.28,49.201,45.28z M49.201,15c4.212,0,7.639,3.427,7.639,7.639s-3.427,7.639-7.639,7.639s-7.639-3.427-7.639-7.639
	S44.989,15,49.201,15z"/>
<path d="M379.168,45.28c12.483,0,22.639-10.156,22.639-22.64S391.651,0,379.168,0s-22.639,10.156-22.639,22.639
	S366.683,45.28,379.168,45.28z M379.168,15c4.212,0,7.639,3.427,7.639,7.639s-3.427,7.639-7.639,7.639
	c-4.212,0-7.639-3.427-7.639-7.639S374.955,15,379.168,15z"/>
<path d="M489.157,45.28c12.483,0,22.639-10.156,22.639-22.64S501.64,0,489.157,0s-22.64,10.156-22.64,22.639
	S476.673,45.28,489.157,45.28z M489.157,15c4.212,0,7.639,3.427,7.639,7.639s-3.427,7.639-7.639,7.639
	c-4.212,0-7.64-3.427-7.64-7.639S484.944,15,489.157,15z"/>
<path d="M49.201,190.204c12.483,0,22.639-10.156,22.639-22.639s-10.156-22.64-22.639-22.64s-22.639,10.156-22.639,22.64
	S36.718,190.204,49.201,190.204z M49.201,159.924c4.212,0,7.639,3.427,7.639,7.64c0,4.212-3.427,7.639-7.639,7.639
	s-7.639-3.427-7.639-7.639C41.562,163.351,44.989,159.924,49.201,159.924z"/>
<path d="M489.157,190.204c12.483,0,22.639-10.156,22.639-22.639s-10.156-22.64-22.639-22.64s-22.64,10.156-22.64,22.64
	S476.673,190.204,489.157,190.204z M489.157,159.924c4.212,0,7.639,3.427,7.639,7.64c0,4.212-3.427,7.639-7.639,7.639
	c-4.212,0-7.64-3.427-7.64-7.639C481.517,163.351,484.944,159.924,489.157,159.924z"/>
<path d="M435.184,108.927c12.483,0,22.639-10.156,22.639-22.639s-10.156-22.64-22.639-22.64s-22.639,10.156-22.639,22.64
	S422.699,108.927,435.184,108.927z M435.184,78.648c4.212,0,7.639,3.427,7.639,7.64c0,4.212-3.427,7.639-7.639,7.639
	c-4.212,0-7.639-3.427-7.639-7.639C427.544,82.076,430.971,78.648,435.184,78.648z"/>
<path d="M103.174,108.927c12.483,0,22.639-10.156,22.639-22.639s-10.156-22.64-22.639-22.64s-22.639,10.156-22.639,22.64
	S90.691,108.927,103.174,108.927z M103.174,78.648c4.212,0,7.639,3.427,7.639,7.64c0,4.212-3.427,7.639-7.639,7.639
	s-7.639-3.427-7.639-7.639C95.535,82.076,98.962,78.648,103.174,78.648z"/>
<path d="M435.184,259.504c12.483,0,22.639-10.156,22.639-22.639s-10.156-22.639-22.639-22.639s-22.639,10.156-22.639,22.639
	S422.699,259.504,435.184,259.504z M435.184,229.225c4.212,0,7.639,3.427,7.639,7.639c0,4.212-3.427,7.639-7.639,7.639
	c-4.212,0-7.639-3.427-7.639-7.639C427.545,232.653,430.971,229.225,435.184,229.225z"/>
<path d="M5.161,511.564c2.943,1.061,6.324,0.137,8.32-2.271c0.168-0.202,17.071-20.472,42.862-40.416
	c23.359-18.064,59.046-39.599,96.398-39.599c15.938,0,30.071,0.988,43.737,1.943c50.836,3.555,94.739,6.628,187.647-46.79
	c15.129-7.911,40.484-6.421,62.861-5.106c14.107,0.829,27.432,1.611,37.76,0.083c17.844-2.642,22.22-12.213,22.748-19.777
	c0.563-8.066-1.523-14.651-6.2-19.571c-11.638-12.242-36.217-11.772-76.938-10.993c-6.824,0.13-13.881,0.266-21.413,0.351
	c-4.142,0.047-7.461,3.442-7.415,7.584c0.046,4.142,3.433,7.458,7.584,7.415c7.59-0.086,14.677-0.221,21.53-0.353
	c32.792-0.627,58.693-1.123,65.779,6.331c1.072,1.127,2.456,3.203,2.108,8.191c-0.111,1.591-0.318,4.553-9.981,5.984
	c-8.797,1.302-21.371,0.563-34.684-0.219c-24.392-1.433-52.038-3.058-70.856,6.875c-0.081,0.042-0.16,0.086-0.239,0.132
	c-89.026,51.209-128.842,48.425-179.247,44.901c-13.923-0.973-28.321-1.98-44.783-1.98c-33.001,0-69.599,14.848-105.839,42.939
	c-13.138,10.184-23.96,20.306-31.697,28.122v-72.26c27.052-13.566,64.203-25.588,100.499-32.445
	c32.107-6.065,61.083-7.803,83.869-5.17c4.737,0.545,9.461,1.305,14.111,2.371c28.193,6.464,58.251,4.798,85.136-6.122
	c25.064-10.171,48.087-23.651,75.537-26.48c4.121-0.425,7.116-4.11,6.69-8.23c-0.425-4.121-4.116-7.115-8.23-6.69
	c-25.531,2.636-43.973,11.237-61.806,19.554c-3.136,1.463-6.251,2.915-9.382,4.321c-6.613-8.158-14.365-19.185-20.308-31.96
	c20.679-11.521,38.521-27.759,50.996-47.387c21.225-33.397,24.175-72.423,8.565-110.638l17.354-7.888
	c4.866-2.212,7.889-6.906,7.889-12.251c0-5.345-3.023-10.04-7.889-12.251l-21.738-9.881c-9.929-18.745-23.192-32.824-39.475-41.842
	c-14.461-8.009-31.356-12.07-50.215-12.07c-52.925,0-104.184,31.503-106.339,32.844c-2.201,1.369-3.539,3.777-3.539,6.369
	c0,21.036,16.13,43.457,25.641,54.849c-22.271,12.117-51.603,33.139-89.377,72.45c-12.556,13.067-24.363,26.78-35.094,40.757
	c-2.588,3.371-3.185,7.735-1.597,11.675c1.586,3.935,5.038,6.662,9.234,7.295c6.543,0.988,16.424,2.307,28.525,3.388l-57.32,40.671
	c-5.028,3.568-7.07,9.66-5.202,15.519c2.081,6.53,8.791,10.644,15.544,9.498c44.149-7.502,94.474-35.847,109.711-44.904
	c11.919,8.634,25.26,14.938,39.59,18.716c2.677,7.437,6.043,14.902,10.051,22.332c-21.53-0.842-46.659,1.299-73.716,6.411
	c-40.098,7.575-79.722,20.687-108.713,35.974c-2.461,1.298-4.002,3.852-4.002,6.634v96.01
	C0.204,507.672,2.187,510.492,5.161,511.564z M242.464,366.967c-5.61-6.662-12.426-15.754-18.331-26.472
	c6.043-0.644,12.039-1.667,17.947-3.054c4.372,9.849,9.874,19.624,16.437,29.215C253.484,367.117,248.156,367.241,242.464,366.967z
	 M287.182,360.106c-3.953,1.425-8.015,2.701-12.254,3.76c-7.413-10.048-13.54-20.309-18.29-30.629
	c3.802-1.307,7.551-2.755,11.232-4.355C273.576,341.059,280.704,351.719,287.182,360.106z M331.357,152.052
	c-0.175-0.119-0.353-0.245-0.534-0.378c-2.117-1.561-4.011-3.743-4.449-6.414c-0.468-2.858,0.859-5.516,2.865-7.474
	c0.202-0.197,2-1.832,2.115-1.717l17.583,7.993L331.357,152.052z M152.226,111.362c12.527-7.051,53.748-28.346,94.581-28.346
	c33.065,0,58.012,14.114,74.251,41.977c-0.03,0.024-0.06,0.051-0.091,0.075c-6.285,5.028-10.273,12.732-9.614,20.875
	c0.694,8.574,6.614,15.853,13.898,19.999c0.032,0.018,0.065,0.039,0.097,0.057c15.522,34.842,13.532,70.543-5.693,100.792
	c-11.209,17.637-27.643,32.601-47.522,43.273c-26.62,14.284-58.466,20.11-88.145,13.484c-0.179-0.04-0.36-0.057-0.54-0.084
	c-13.236-3.023-27.452-8.891-40.886-19.517c-0.15-0.142-0.299-0.286-0.462-0.416c-1.759-1.401-3.478-2.875-5.162-4.403
	c41.92-2.065,88.133-11.41,117.705-38.525c28.483-26.115,44.604-74.82,8.084-101.912c-20.126-14.929-48.969-17.512-72.229-9.16
	c-4.218,1.515-8.902,3.343-14.075,5.664C168.033,145.583,154.405,127.067,152.226,111.362z M84.007,244.921
	c31.783-33.077,67.689-65.5,111.561-81.269c28.002-10.064,71.133,0.298,73.564,35.269c0.893,12.841-5.171,25.36-12.034,35.848
	c-26.329,40.236-87.936,49.483-137.059,49.824c-22.301,0.167-44.663-1.368-66.755-4.404
	C62.787,268.112,73.104,256.268,84.007,244.921z M124.702,308.247c-17.443,10.048-58.105,31.826-94.937,39.364L97.984,299.2
	c5.913,0.246,12.09,0.394,18.455,0.404c2.225,2.556,4.559,5.022,6.98,7.393C123.847,307.416,124.271,307.837,124.702,308.247z
	 M204.806,361.002c-4.211-6.835-7.821-13.711-10.798-20.563c0.163,0.019,0.328,0.032,0.492,0.05
	c4.371,0.481,8.739,0.753,13.136,0.806c4.197,8.569,9.052,16.333,13.8,23.01C217.827,363.324,206.742,361.268,204.806,361.002z"/>
<g>
</g>
<g>
</g>
<g>
</g>
<g>
</g>
<g>
</g>
<g>
</g>
<g>
</g>
<g>
</g>
<g>
</g>
<g>
</g>
<g>
</g>
<g>
</g>
<g>
</g>
<g>
</g>
<g>
</g>
</svg>
